<?xml version="1.0" standalone="no"?>
<!DOCTYPE svg PUBLIC "-//W3C//DTD SVG 20010904//EN"
 "http://www.w3.org/TR/2001/REC-SVG-20010904/DTD/svg10.dtd">
<svg version="1.0" xmlns="http://www.w3.org/2000/svg"
 width="1000.000000pt" height="1000.000000pt" viewBox="0 0 1000.000000 1000.000000"
 preserveAspectRatio="xMidYMid meet">
<metadata>
Created by potrace 1.11, written by Peter Selinger 2001-2013
</metadata>
<g transform="translate(0.000000,1000.000000) scale(0.100000,-0.100000)"
fill="#000000" stroke="none">
<path d="M5504 9844 c4 -15 4 -40 0 -57 l-6 -31 -16 30 c-9 16 -17 24 -19 17
-3 -7 -12 -13 -21 -13 -14 0 -15 -2 -2 -10 8 -5 11 -13 6 -17 -4 -4 -13 0 -20
10 -16 21 -36 22 -36 2 0 -8 9 -15 20 -15 11 0 20 -4 20 -10 0 -5 -6 -10 -13
-10 -8 0 -22 -9 -31 -19 -17 -19 -46 -18 -46 1 0 5 -6 16 -14 23 -12 12 -15
12 -20 0 -3 -9 -19 -15 -41 -15 -22 0 -35 -5 -35 -13 0 -16 -49 -21 -66 -6
-11 9 -18 8 -28 0 -11 -10 -16 -9 -23 4 -8 13 -14 14 -43 4 -19 -7 -40 -16
-47 -21 -7 -6 -15 -3 -20 7 -9 15 -11 15 -22 1 -19 -22 -34 -20 -28 4 3 13 1
18 -6 13 -7 -4 -8 0 -4 11 5 14 3 17 -8 12 -9 -3 -15 0 -15 9 0 7 -5 17 -10
20 -6 4 -9 1 -8 -7 2 -8 -7 -13 -26 -13 -23 0 -30 -5 -33 -25 -5 -36 -15 -41
-47 -25 -33 18 -56 19 -56 4 0 -6 -7 -17 -16 -26 -14 -14 -12 -18 15 -45 33
-32 40 -73 9 -57 -9 5 -19 13 -22 18 -3 5 -19 8 -36 7 -16 -1 -30 1 -30 4 0 3
-11 7 -25 8 -30 2 -53 -32 -35 -53 16 -19 -2 -26 -52 -20 -40 6 -42 5 -24 -9
10 -8 24 -17 30 -19 7 -3 7 -9 -3 -20 -11 -15 -11 -17 1 -17 8 0 20 -16 27
-35 14 -39 33 -44 65 -18 12 10 15 11 9 3 -7 -8 -13 -24 -13 -37 0 -28 -5 -29
-32 -3 -13 12 -29 18 -40 14 -11 -3 -20 1 -24 11 -4 10 -13 13 -24 10 -10 -3
-21 -1 -25 5 -5 8 -12 7 -23 -3 -22 -18 -72 -28 -69 -13 1 6 -4 10 -10 9 -7
-2 -13 2 -13 9 0 16 -24 -7 -26 -25 0 -7 -2 -22 -2 -35 -2 -20 -7 -22 -47 -20
-24 0 -42 5 -39 10 3 4 0 8 -5 8 -14 0 -14 47 -1 55 15 9 12 25 -5 25 -9 0
-18 -8 -21 -17 -3 -10 -15 -37 -26 -61 -16 -33 -26 -42 -40 -39 -11 3 -18 0
-17 -6 3 -26 -2 -34 -26 -45 -14 -7 -39 -12 -55 -12 -16 0 -32 -5 -35 -10 -4
-6 -22 -9 -41 -6 -22 4 -34 2 -34 -6 0 -6 -7 -4 -18 5 -20 19 -42 22 -42 8 0
-5 6 -12 13 -15 8 -3 6 -9 -8 -18 -24 -15 -127 -17 -137 -3 -4 6 -8 2 -8 -7 0
-11 8 -18 20 -18 25 0 38 -28 19 -42 -11 -8 -10 -9 4 -4 11 3 17 0 17 -9 0
-14 -13 -20 -34 -16 -6 1 -20 -3 -33 -10 -19 -10 -26 -9 -41 4 -19 18 -42 23
-42 9 0 -4 9 -13 20 -20 11 -7 20 -20 20 -30 0 -30 17 -45 56 -51 l39 -7 -33
-11 c-18 -7 -30 -8 -27 -3 3 5 1 11 -5 15 -6 4 -10 -4 -10 -18 0 -17 -5 -24
-17 -23 -10 0 -17 -4 -16 -10 1 -6 -5 -11 -12 -11 -29 0 -94 -26 -99 -40 -4
-8 3 -17 17 -22 21 -8 20 -10 -15 -26 -20 -10 -35 -22 -33 -26 5 -7 -19 -20
-40 -24 -42 -6 -86 -19 -91 -27 -12 -19 -11 -57 2 -62 8 -3 11 -12 8 -21 -3
-8 -1 -15 6 -15 6 0 8 -5 4 -11 -3 -6 -2 -14 4 -18 17 -10 -9 -54 -43 -70 -27
-13 -27 -14 -10 -27 10 -8 14 -14 9 -14 -6 0 -17 -12 -24 -27 -8 -16 -25 -38
-39 -51 -19 -17 -23 -24 -13 -30 9 -7 7 -13 -9 -28 -12 -10 -26 -30 -31 -44
-7 -20 -11 -22 -18 -10 -8 13 -10 13 -10 -1 0 -22 -32 -49 -58 -49 -13 0 -22
-6 -22 -15 0 -8 -6 -15 -12 -15 -7 0 -5 -5 6 -11 17 -11 17 -12 -2 -23 -11 -6
-46 -33 -78 -59 -33 -26 -80 -62 -106 -79 -27 -17 -48 -38 -48 -45 0 -8 -4
-11 -10 -8 -5 3 -10 -1 -10 -9 0 -21 8 -20 55 9 49 30 59 31 43 5 -7 -11 -18
-20 -25 -20 -7 0 -21 -8 -31 -17 -10 -10 -28 -24 -40 -32 -17 -12 -20 -22 -17
-63 2 -28 0 -48 -6 -48 -6 0 -7 -5 -4 -10 3 -6 17 -7 30 -4 13 3 32 1 42 -4
17 -10 17 -11 1 -17 -10 -4 -18 -16 -18 -27 0 -10 -11 -30 -24 -43 -13 -13
-22 -26 -19 -28 2 -3 -7 -22 -22 -42 -14 -21 -25 -42 -25 -47 0 -5 -4 -6 -10
-3 -5 3 -10 -3 -10 -15 0 -11 -7 -23 -15 -26 -8 -4 -13 -10 -10 -14 3 -4 -1
-10 -9 -13 -9 -4 -12 -14 -9 -28 4 -15 3 -20 -5 -15 -8 5 -13 -1 -14 -16 0
-13 -2 -28 -2 -35 -1 -6 -15 -22 -31 -35 -17 -12 -32 -26 -34 -31 -1 -4 -14
-19 -27 -32 -13 -13 -24 -29 -24 -34 0 -24 -93 -51 -106 -30 -3 6 -11 3 -20
-8 -13 -17 -13 -17 -15 2 0 13 -4 9 -10 -12 -5 -18 -13 -32 -17 -31 -4 1 -17
-2 -30 -6 -17 -6 -21 -13 -17 -27 4 -12 2 -19 -7 -19 -8 -1 -4 -8 10 -19 31
-27 28 -48 -8 -56 -16 -4 -36 -15 -43 -26 -8 -10 -17 -16 -21 -11 -4 4 -7 2
-6 -3 1 -6 2 -12 0 -15 -10 -27 -8 -55 5 -62 9 -6 15 -23 15 -48 0 -31 4 -40
22 -46 57 -18 57 -53 1 -79 -31 -15 -34 -19 -19 -27 11 -6 15 -16 10 -30 -5
-18 -3 -20 20 -16 14 3 26 1 26 -5 0 -6 3 -7 7 -4 3 4 16 1 29 -7 26 -18 41
-9 17 9 -15 11 -15 13 6 20 12 4 25 5 27 2 7 -6 -18 -57 -28 -57 -4 0 -8 -7
-8 -15 0 -8 -4 -15 -10 -15 -5 0 -9 -6 -7 -12 1 -9 -11 -13 -36 -14 -52 -1
-69 -20 -31 -34 l29 -12 -22 -18 c-29 -23 -29 -30 2 -30 14 0 25 -4 25 -8 0
-4 19 -8 42 -9 26 -1 44 -7 50 -17 5 -9 18 -16 28 -16 11 0 19 -6 17 -12 -1
-7 4 -12 11 -11 6 2 12 -3 12 -10 0 -7 8 -19 19 -26 17 -12 17 -17 5 -59 -13
-40 -12 -47 1 -55 10 -5 12 -14 7 -25 -5 -9 -7 -33 -6 -52 2 -19 6 -67 9 -107
4 -45 2 -74 -5 -78 -6 -3 -8 -10 -5 -14 2 -5 0 -23 -5 -41 -5 -19 -6 -38 -2
-44 12 -15 14 -67 4 -80 -14 -18 -33 -96 -27 -106 3 -6 12 -10 19 -10 8 0 16
-8 20 -17 7 -23 28 -56 40 -65 5 -3 10 -17 11 -29 1 -13 7 -25 14 -27 6 -2 17
-10 24 -18 27 -30 36 -42 33 -45 -2 -2 -6 -16 -10 -31 -5 -23 -3 -26 10 -21
14 5 16 2 12 -15 -3 -11 -1 -23 5 -25 17 -5 -2 -27 -24 -27 -11 0 -17 5 -14
10 3 6 1 10 -5 10 -7 0 -9 7 -6 16 4 11 0 15 -17 13 -12 -1 -29 1 -37 5 -21 9
-120 13 -120 4 0 -4 -12 -13 -27 -20 -16 -7 -29 -23 -31 -36 -2 -12 -7 -22
-12 -22 -13 0 -22 -33 -10 -40 6 -4 2 -14 -10 -28 -25 -27 -25 -36 0 -29 11 3
20 1 20 -4 0 -5 -7 -9 -16 -9 -14 0 -14 -3 -4 -15 9 -10 9 -15 1 -15 -6 0 -11
-4 -11 -10 0 -5 3 -9 8 -9 19 3 21 -3 6 -26 -16 -24 -11 -51 7 -40 5 4 9 2 9
-3 0 -6 -7 -12 -15 -16 -18 -6 -20 -43 -4 -48 9 -3 8 -10 -1 -25 -8 -12 -10
-28 -5 -39 5 -13 9 -15 12 -6 7 17 23 15 23 -3 0 -8 -7 -15 -15 -15 -22 0 -18
-18 6 -31 22 -11 22 -11 16 66 -5 61 -3 81 9 101 9 13 20 21 25 18 5 -3 9 0 9
5 0 6 -6 11 -14 11 -7 0 -20 7 -27 17 -13 15 -11 16 13 9 32 -7 36 1 10 20
-19 14 -11 28 27 39 15 5 21 3 17 -3 -4 -6 2 -8 14 -5 15 4 20 0 20 -14 0 -10
5 -24 12 -31 8 -8 9 -12 1 -12 -6 0 -18 7 -26 15 -13 13 -16 13 -21 0 -3 -10
3 -17 22 -22 15 -3 34 -13 42 -22 13 -13 13 -14 -2 -9 -10 4 -19 1 -22 -9 -6
-14 -8 -14 -22 3 -9 10 -12 13 -9 6 5 -9 1 -12 -11 -10 -15 2 -20 -4 -22 -30
-2 -18 -10 -36 -18 -39 -17 -6 -19 -24 -1 -20 6 1 11 -4 9 -11 -2 -10 4 -11
19 -7 20 7 21 4 17 -29 -2 -20 -1 -36 3 -36 12 0 18 -44 7 -51 -8 -5 -4 -14
13 -28 24 -20 24 -20 2 -21 -16 0 -20 -5 -16 -20 8 -32 -39 -68 -50 -37 -2 6
-8 8 -13 4 -10 -10 15 -27 36 -26 30 2 40 -1 40 -16 0 -17 -34 -37 -45 -27 -5
4 -5 1 -1 -5 4 -7 17 -13 29 -14 12 0 17 -3 11 -5 -9 -4 -8 -18 1 -56 12 -44
12 -54 -2 -74 -14 -22 -14 -24 1 -24 9 0 16 -6 16 -14 0 -8 10 -18 21 -21 15
-5 18 -9 9 -15 -9 -5 -9 -9 -1 -14 6 -4 16 -4 22 -1 5 4 3 -10 -5 -30 -19 -43
-19 -48 -7 -41 5 4 11 0 14 -6 3 -10 7 -10 17 -1 10 10 11 15 1 27 -10 11 -9
19 1 36 9 14 10 23 2 28 -5 4 -10 38 -10 76 1 58 -2 70 -16 74 -10 2 -18 9
-18 14 0 5 4 6 10 3 6 -4 10 6 10 24 0 16 -5 31 -11 33 -7 2 -6 18 5 47 8 24
12 50 9 57 -3 8 0 14 7 14 7 0 10 7 6 16 -3 8 -2 13 3 10 5 -3 15 2 22 11 8 9
9 14 4 11 -6 -4 -17 -3 -25 2 -12 7 -10 13 9 29 13 12 21 21 16 21 -4 0 -2 6
4 14 9 10 8 15 -4 19 -18 8 -9 37 12 37 10 0 13 6 8 18 -12 31 -18 85 -9 79 5
-3 18 1 28 9 15 10 16 14 5 18 -41 13 -43 14 -21 15 12 1 22 5 22 11 0 18 40
32 55 20 8 -7 14 -15 13 -18 -2 -20 3 -32 12 -27 6 3 10 -1 10 -9 0 -9 4 -16
10 -16 5 0 7 -6 4 -14 -3 -8 -1 -17 5 -21 6 -3 11 -18 12 -33 0 -26 1 -26 9
-4 12 29 22 28 18 -1 -1 -13 5 -35 14 -49 10 -15 14 -28 10 -31 -4 -2 -1 -2 7
0 7 2 27 -11 44 -29 19 -20 24 -29 13 -25 -14 5 -17 3 -12 -8 3 -9 0 -15 -9
-15 -10 0 -15 -10 -15 -30 0 -16 -5 -30 -11 -30 -5 0 -7 6 -3 13 4 6 -3 2 -16
-11 -12 -13 -20 -26 -16 -29 7 -7 -19 -33 -33 -33 -7 0 -7 -8 -1 -25 7 -19 6
-25 -4 -25 -8 0 -16 5 -18 11 -2 5 -11 7 -21 3 -16 -6 -17 -8 -2 -24 11 -12
13 -20 6 -25 -17 -10 -13 -30 13 -58 13 -14 21 -28 18 -31 -3 -3 1 -6 9 -6 14
0 18 13 19 63 1 10 7 16 13 14 7 -2 11 -15 10 -28 -2 -23 -1 -22 9 4 7 15 18
27 25 27 16 0 17 -12 2 -27 -14 -14 -4 -47 11 -38 8 5 8 11 1 19 -9 10 -3 12
27 10 20 -2 46 -3 58 -3 21 -1 26 -23 11 -48 -4 -6 -3 -14 3 -18 6 -4 8 -11 4
-16 -3 -6 -7 -45 -9 -89 -4 -94 -11 -120 -33 -120 -10 0 -13 -3 -7 -8 6 -4 11
-14 12 -22 8 -57 22 -101 37 -115 13 -13 14 -20 5 -31 -9 -11 -9 -21 0 -42 8
-16 9 -28 3 -30 -5 -1 -8 -12 -5 -23 3 -10 -1 -26 -8 -35 -9 -11 -10 -17 -2
-22 6 -4 15 -20 18 -35 6 -21 4 -27 -9 -27 -13 0 -15 -4 -6 -19 5 -11 10 -29
10 -41 0 -19 -4 -21 -25 -16 -14 4 -25 3 -25 -2 0 -7 -22 -8 -67 -3 -7 0 -13
7 -13 15 0 8 -9 18 -20 21 -11 3 -20 10 -20 15 0 5 -9 8 -20 7 -27 -2 -25 -23
5 -53 14 -14 25 -29 25 -34 0 -6 8 -10 17 -10 9 0 30 -4 47 -9 17 -5 50 -15
74 -22 33 -10 41 -16 37 -30 -4 -11 1 -19 13 -23 15 -5 18 -15 16 -57 -1 -28
-5 -67 -9 -86 -4 -23 -2 -38 5 -43 7 -5 8 -15 1 -32 -10 -26 -5 -68 8 -68 9 0
5 -66 -5 -81 -4 -6 0 -16 7 -21 10 -7 11 -11 2 -14 -9 -4 -9 -11 -1 -29 13
-29 2 -68 -13 -45 -6 10 -8 -6 -4 -48 3 -36 1 -71 -5 -82 -9 -16 -8 -20 7 -20
15 0 16 -2 3 -10 -13 -8 -13 -10 2 -10 13 0 16 -7 12 -33 -2 -18 4 -47 13 -67
18 -37 19 -86 2 -106 -6 -8 -6 -14 0 -18 5 -3 7 -15 4 -26 -3 -11 0 -27 7 -35
7 -9 8 -15 2 -15 -5 0 -8 -9 -5 -20 3 -11 9 -20 14 -20 5 0 9 -7 9 -15 0 -8
-5 -15 -10 -15 -6 0 -5 -8 2 -19 7 -11 16 -17 20 -15 24 15 -1 -79 -26 -97 -5
-4 -10 -24 -11 -45 0 -21 -6 -39 -11 -41 -6 -2 -9 -25 -7 -51 2 -34 0 -43 -7
-32 -12 19 -13 0 -1 -19 6 -9 6 -22 0 -32 -6 -12 -5 -19 4 -22 7 -3 5 -6 -5
-6 -13 -1 -18 -9 -18 -30 0 -21 -5 -28 -16 -27 -9 0 -19 -5 -21 -11 -3 -7 3
-13 12 -13 9 0 13 -4 10 -10 -3 -5 -16 -10 -28 -10 -18 0 -19 -2 -7 -10 13 -9
13 -11 0 -20 -13 -9 -13 -11 0 -19 10 -7 20 -5 31 5 8 7 23 14 32 14 9 0 17 7
17 15 0 8 -4 15 -10 15 -5 0 -10 7 -10 16 0 13 3 14 14 5 7 -6 22 -8 31 -4 17
6 16 7 -3 14 -23 9 -30 29 -11 29 7 0 9 10 5 26 -5 19 -4 24 6 20 7 -3 21 -9
31 -12 20 -7 22 -20 5 -27 -10 -4 -10 -8 1 -15 9 -7 10 -12 2 -16 -6 -4 -11
-12 -11 -17 0 -6 4 -8 10 -4 13 8 -20 -98 -34 -107 -6 -4 4 -8 22 -8 23 0 32
-4 29 -12 -2 -7 -16 -12 -31 -11 -16 1 -26 -3 -26 -12 0 -7 -6 -16 -12 -18
-10 -4 -9 -8 2 -16 13 -9 13 -14 2 -31 -16 -26 -6 -43 20 -34 11 3 27 7 35 8
8 1 19 9 24 17 7 10 8 6 3 -13 -4 -18 -2 -28 5 -28 22 0 11 -16 -19 -27 -29
-11 -31 -15 -14 -58 9 -23 11 -32 13 -44 0 -5 10 -11 21 -14 25 -6 25 -18 0
-47 -24 -27 -26 -44 -5 -36 8 3 15 1 15 -4 0 -6 -7 -10 -16 -10 -8 0 -22 -7
-31 -15 -14 -14 -13 -18 6 -34 16 -14 19 -21 10 -27 -7 -4 -18 1 -25 11 -8 10
-17 16 -20 12 -3 -3 7 -18 22 -32 23 -20 24 -24 7 -16 -30 15 -36 14 -29 -5 4
-10 2 -14 -6 -11 -7 2 -12 10 -10 16 1 6 -11 11 -28 11 -34 0 -37 -6 -13 -32
9 -10 11 -18 5 -18 -13 0 -4 -29 14 -48 8 -7 15 -8 19 -3 3 6 13 7 22 4 14 -5
13 -8 -6 -15 -12 -4 -19 -12 -16 -18 4 -6 11 -8 16 -5 11 8 12 -6 0 -24 -5 -7
-14 -10 -21 -6 -7 4 -10 1 -8 -11 2 -11 -2 -18 -9 -17 -7 2 -10 -4 -7 -12 4
-8 10 -12 15 -10 5 3 11 -5 15 -19 6 -23 7 -24 39 -10 22 9 36 10 40 4 3 -6
-3 -10 -15 -10 -20 0 -62 -30 -50 -36 3 -1 1 -6 -4 -11 -5 -4 -6 -3 -3 3 4 7
0 15 -9 18 -24 9 -28 7 -14 -9 10 -12 9 -16 -3 -21 -13 -5 -14 -9 -4 -19 8 -9
16 -10 25 -3 19 16 25 3 7 -16 -15 -14 -15 -17 -1 -22 8 -3 20 -3 26 1 5 3 10
1 10 -6 0 -7 6 -5 13 6 8 10 19 15 25 11 7 -4 12 -1 12 6 0 7 7 2 16 -10 8
-12 19 -20 23 -18 4 3 13 1 21 -5 11 -6 8 -9 -12 -9 -17 0 -28 -5 -28 -14 0
-9 7 -12 19 -9 24 6 40 -34 20 -49 -11 -7 -11 -11 -1 -15 14 -6 17 -63 2 -63
-5 0 -10 7 -10 15 0 9 -8 18 -17 22 -29 10 -55 43 -49 59 4 9 -3 23 -16 35
-31 25 -38 24 -25 -5 7 -14 18 -22 27 -19 8 2 4 -2 -9 -10 l-24 -14 32 -19
c17 -10 31 -21 31 -25 0 -4 9 -9 20 -12 14 -4 18 -10 13 -23 -4 -12 -3 -15 5
-10 7 4 12 3 12 -3 0 -6 7 -8 15 -5 8 4 15 1 15 -5 0 -6 8 -8 18 -4 15 6 15 5
4 -10 -8 -9 -11 -25 -7 -37 4 -11 2 -20 -4 -20 -6 0 -11 5 -11 12 0 6 -3 9 -6
6 -6 -7 12 -42 43 -81 28 -35 31 -62 6 -53 -10 4 -14 3 -9 -1 4 -4 22 -13 39
-20 30 -11 31 -12 10 -19 -16 -4 -23 -14 -23 -32 0 -26 0 -26 15 -6 10 15 22
20 40 17 13 -3 23 -8 20 -12 -2 -4 3 -20 11 -36 8 -15 13 -29 12 -30 -2 -1
-14 -9 -28 -18 l-25 -17 32 4 c23 2 30 0 26 -10 -3 -8 -9 -14 -14 -14 -5 0 -9
-12 -9 -26 0 -14 -4 -22 -10 -19 -6 3 -7 -1 -4 -9 3 -9 12 -16 20 -16 8 0 13
-9 11 -21 -1 -12 4 -24 11 -26 7 -3 12 4 12 16 0 12 4 21 8 21 12 0 11 -34 -1
-41 -11 -8 -1 -29 14 -29 6 0 7 5 3 12 -4 6 -3 8 4 4 13 -8 37 -76 34 -93 -2
-7 1 -13 7 -13 5 0 7 -9 4 -20 -5 -18 5 -25 30 -21 11 2 8 -14 -5 -27 -9 -9
-9 -12 1 -12 9 0 11 -9 6 -31 -4 -18 -3 -29 2 -26 5 3 8 -13 8 -36 -1 -26 5
-48 15 -57 20 -20 52 -70 44 -70 -3 0 4 -9 17 -20 15 -12 19 -19 10 -20 -7 0
-11 -6 -8 -14 6 -14 -43 -31 -53 -18 -3 4 -12 7 -20 7 -8 0 -14 5 -13 10 1 6
-14 11 -33 12 -19 1 -49 9 -67 18 -18 9 -50 23 -72 31 -69 25 -115 48 -115 56
0 4 -5 8 -11 8 -26 0 -139 61 -139 75 0 8 -5 15 -10 15 -6 0 -9 3 -9 8 3 20
-2 23 -18 11 -13 -11 -17 -11 -20 -1 -3 6 -9 12 -15 12 -5 0 -16 7 -25 15 -8
8 -19 13 -24 10 -5 -4 -9 -1 -9 4 0 6 -7 11 -15 11 -8 0 -20 9 -27 20 -7 11
-18 20 -25 20 -7 0 -13 7 -13 15 0 8 -8 15 -19 15 -20 0 -45 23 -35 33 3 3 -4
3 -17 0 -19 -5 -21 -3 -17 15 4 13 2 19 -6 16 -18 -7 -61 29 -61 51 0 14 -6
19 -17 17 -11 -2 -18 3 -18 12 0 10 -6 13 -15 10 -9 -4 -15 0 -15 10 0 9 -8
16 -18 16 -17 0 -111 69 -112 83 0 4 -18 23 -40 43 -22 20 -40 43 -40 51 0 8
-4 12 -8 9 -5 -3 -15 5 -23 16 -8 12 -33 44 -57 72 -58 70 -62 74 -62 81 0 3
-15 29 -33 58 -35 54 -97 180 -97 196 0 5 -5 11 -10 13 -6 2 -11 14 -12 28 -1
14 -5 30 -9 35 -14 20 -28 88 -23 114 4 19 19 32 57 51 29 14 58 23 65 22 7
-2 15 4 18 12 3 9 10 14 14 11 4 -2 18 4 30 15 13 11 26 20 29 20 4 0 14 13
24 29 l17 29 -47 14 c-45 13 -129 15 -141 4 -3 -3 -11 -1 -19 5 -10 9 -13 8
-13 -1 0 -7 -8 -10 -20 -7 -11 3 -20 2 -20 -2 0 -7 -74 -41 -89 -41 -5 0 -12
-9 -16 -19 -3 -11 -16 -23 -28 -27 -12 -4 -30 -17 -40 -30 -10 -13 -24 -24
-30 -24 -7 -1 -28 -14 -47 -30 -19 -17 -42 -30 -52 -30 -9 0 -20 -5 -23 -10
-5 -8 -11 -8 -19 -1 -14 12 -96 -8 -121 -29 -8 -6 -19 -8 -26 -4 -9 5 -10 -1
-5 -21 6 -24 5 -27 -13 -22 -22 5 -65 -25 -53 -38 4 -5 -1 -5 -11 -2 -11 4
-17 1 -17 -7 0 -15 -34 -29 -62 -26 -10 1 -18 -4 -18 -9 0 -6 -7 -11 -15 -11
-8 0 -15 -5 -15 -11 0 -5 -3 -8 -7 -6 -5 3 -28 -3 -53 -14 -25 -10 -40 -18
-35 -19 6 0 -1 -6 -15 -13 -17 -9 -27 -10 -32 -3 -5 8 -8 8 -8 0 0 -6 -14 -14
-32 -18 -41 -8 -119 -46 -139 -68 -9 -10 -24 -18 -33 -18 -9 0 -30 -7 -47 -15
-16 -9 -34 -13 -39 -10 -6 3 -10 2 -10 -4 0 -5 -14 -12 -30 -16 -19 -4 -28
-11 -23 -18 5 -8 2 -8 -8 0 -9 7 -19 9 -25 4 -5 -5 -20 -11 -34 -13 -14 -2
-24 -9 -23 -16 2 -8 -8 -10 -32 -7 -19 2 -35 0 -35 -4 0 -5 -19 -11 -42 -15
-23 -4 -48 -12 -56 -19 -14 -11 -34 -17 -62 -19 -8 -1 -17 -4 -20 -7 -6 -8
-80 -43 -100 -48 -8 -2 -19 -5 -25 -6 -5 -1 -16 -6 -22 -10 -7 -4 -28 -10 -47
-12 -19 -3 -54 -12 -78 -20 -24 -9 -68 -23 -98 -31 -30 -8 -57 -20 -61 -26 -4
-6 -11 -8 -17 -4 -6 3 -13 2 -16 -3 -4 -5 -24 -12 -46 -16 -22 -4 -42 -11 -46
-16 -3 -5 -16 -9 -30 -9 -14 0 -34 -5 -45 -10 -18 -10 -19 -26 -19 -440 l0
-430 5000 0 5000 0 0 1090 c0 607 -4 1090 -9 1090 -8 0 -13 12 -20 45 -1 6 -9
20 -17 33 -8 12 -12 27 -8 33 3 5 -4 18 -15 28 -12 10 -21 23 -21 30 0 6 -7
11 -15 11 -13 0 -20 19 -16 44 1 5 -8 20 -21 33 -14 15 -22 34 -20 49 2 16 -1
24 -12 24 -10 0 -16 9 -16 25 0 14 -4 25 -10 25 -5 0 -19 20 -30 45 -11 24
-29 49 -39 55 -11 5 -22 23 -26 39 -3 16 -13 32 -21 35 -8 3 -14 13 -14 23 0
10 -9 29 -19 42 -10 14 -17 30 -14 37 2 7 0 15 -6 18 -6 4 -8 13 -4 21 3 10
-2 15 -16 15 -20 0 -25 9 -22 38 1 6 -6 12 -15 12 -13 0 -14 3 -5 14 9 10 8
16 -3 26 -9 6 -18 20 -21 30 -3 10 -22 36 -41 57 -20 21 -43 52 -52 70 -49 92
-105 199 -153 293 -30 58 -56 107 -59 110 -3 3 -14 21 -24 40 -10 19 -29 46
-41 60 -33 36 -105 152 -105 167 0 7 -4 13 -10 13 -5 0 -12 11 -16 25 -3 14
-10 26 -15 26 -5 1 -13 2 -18 3 -6 0 -16 7 -22 13 -7 7 -19 13 -26 13 -7 0
-13 5 -13 10 0 6 -7 10 -15 10 -25 0 -76 30 -70 40 4 6 -1 10 -10 10 -10 0
-26 11 -37 25 -11 14 -26 25 -34 25 -8 0 -20 11 -26 25 -6 14 -15 25 -20 25
-4 0 -16 18 -25 40 -10 22 -25 40 -33 40 -12 0 -12 2 -2 9 10 6 10 10 -2 20
-8 7 -20 10 -26 6 -6 -4 -10 -3 -9 2 4 22 -2 43 -12 43 -20 0 -40 30 -34 50 3
11 11 20 16 20 15 0 10 30 -6 36 -12 5 -13 9 -4 21 11 12 8 13 -14 8 -17 -5
-27 -3 -27 4 0 6 5 11 11 11 5 0 7 5 3 11 -5 8 -8 8 -13 0 -4 -6 -18 -12 -31
-13 -18 -2 -25 2 -25 15 0 10 -7 23 -15 28 -12 8 -9 10 12 6 15 -2 29 1 32 7
3 7 8 6 14 -3 9 -13 13 -13 28 0 15 12 17 12 12 -1 -11 -35 76 -81 148 -78 24
0 41 5 38 10 -3 4 3 8 14 8 11 0 31 9 45 20 14 11 30 20 36 20 7 0 14 7 18 16
3 8 12 13 19 10 19 -7 18 22 -1 41 -10 9 -22 12 -33 8 -33 -15 -52 -12 -52 7
0 13 -7 18 -26 18 -17 0 -28 6 -31 19 -4 14 -12 19 -31 16 -15 -1 -33 -3 -41
-4 -7 0 -11 -7 -8 -16 5 -11 1 -12 -17 -5 -13 5 -27 6 -31 2 -4 -4 -13 1 -20
12 -8 10 -18 15 -24 11 -6 -3 -11 -1 -11 5 0 6 -11 5 -30 -5 -26 -13 -29 -14
-24 0 6 15 -8 19 -46 16 -9 -1 -24 19 -38 50 -17 38 -26 50 -38 45 -12 -5 -15
-2 -10 10 3 8 6 18 6 20 0 5 43 -19 50 -28 3 -3 19 -9 35 -13 22 -5 26 -4 15
4 -21 15 -2 27 20 13 27 -16 41 -15 34 3 -7 17 13 20 35 6 8 -5 10 -14 5 -22
-6 -10 -3 -10 11 1 14 11 19 12 22 3 3 -7 12 -13 20 -13 14 0 14 2 0 18 -12
13 -14 21 -6 29 22 22 -2 51 -67 83 -36 17 -68 39 -71 48 -4 10 -12 21 -20 25
-7 4 -13 17 -13 27 0 11 -6 20 -14 20 -7 0 -16 8 -19 18 -2 9 -8 26 -13 36 -5
14 -4 17 4 12 7 -4 12 -2 12 3 0 6 -6 11 -13 11 -7 0 -19 17 -26 37 -12 32
-12 38 3 48 19 15 21 25 3 25 -9 0 -12 11 -11 35 2 19 -1 37 -6 40 -6 4 -10
15 -10 26 0 10 -7 19 -15 19 -15 0 -17 12 -20 85 -1 19 -6 30 -16 30 -9 0 -13
8 -11 23 2 12 -2 22 -8 22 -8 0 -10 9 -6 25 5 19 2 25 -9 25 -9 0 -14 4 -10 9
3 5 1 13 -5 16 -8 5 -7 12 2 23 11 13 11 15 -3 10 -11 -4 -21 5 -35 30 -10 21
-22 40 -26 43 -5 3 -2 13 5 23 20 28 0 90 -46 139 -21 23 -49 65 -63 92 -38
75 -46 87 -90 141 -23 27 -45 59 -49 72 -4 13 -36 54 -71 92 -35 37 -64 72
-64 77 0 14 -39 46 -82 68 -21 11 -38 23 -38 27 0 3 -10 10 -22 14 -13 4 -25
9 -28 13 -9 11 -100 51 -116 51 -8 0 -25 7 -39 16 -14 9 -39 14 -64 12 l-41
-3 15 -29 c9 -16 14 -31 12 -33 -2 -2 -48 6 -103 17 -54 11 -148 23 -209 26
-60 3 -120 7 -133 10 -21 4 -22 5 -5 22 33 33 93 73 93 63 0 -18 29 -12 39 8
12 21 5 32 -15 24 -17 -6 -19 13 -1 24 14 9 -62 23 -135 24 -27 0 -48 4 -48 7
0 7 -6 8 -100 12 -30 1 -59 5 -64 7 -4 3 -49 7 -100 9 -50 1 -104 6 -121 9
-16 4 -35 8 -42 9 -7 1 -15 5 -19 9 -3 3 -19 3 -35 0 -16 -3 -35 -1 -42 5 -14
12 -145 11 -164 -1 -7 -5 -13 -4 -13 1 0 5 -11 12 -25 14 -14 3 -25 2 -25 -2
0 -4 -6 -7 -12 -7 -7 -1 -30 -4 -51 -8 -23 -4 -43 -2 -52 5 -8 7 -16 7 -19 1
-3 -5 -15 -7 -26 -4 -11 3 -20 1 -20 -3 0 -5 -18 -10 -40 -10 -26 -1 -38 2
-33 9 4 6 1 7 -7 2 -18 -11 -172 -13 -187 -2 -16 11 -55 -1 -47 -15 4 -6 -1
-17 -11 -25 -17 -12 -17 -13 -2 -13 9 0 17 -6 18 -12 0 -7 2 -36 4 -64 1 -28
7 -59 12 -69 8 -13 4 -29 -14 -61 -21 -38 -28 -43 -49 -38 -13 3 -24 2 -24 -3
0 -12 -3 -12 -108 -16 -75 -2 -86 -5 -102 -27 -10 -13 -17 -27 -14 -31 2 -3
-2 -31 -10 -60 -28 -113 -5 -249 45 -268 11 -4 21 -10 21 -14 0 -26 13 -47 29
-47 11 0 19 -4 19 -10 0 -5 21 -30 46 -56 35 -37 48 -44 54 -34 5 8 12 12 15
8 4 -3 23 11 43 33 36 38 62 50 62 29 0 -5 5 -10 10 -10 6 0 5 8 -2 20 -14 22
0 57 21 53 6 -2 11 1 11 6 0 6 14 25 31 43 17 18 44 57 61 86 17 29 51 70 76
90 26 20 59 50 74 65 37 39 95 47 125 18 25 -23 33 -26 33 -11 0 19 44 57 79
69 31 10 160 15 136 5 -6 -2 -9 -20 -7 -39 2 -19 0 -35 -6 -35 -5 0 -15 -15
-23 -32 -7 -18 -24 -47 -38 -64 -14 -17 -39 -48 -55 -68 -16 -20 -34 -36 -40
-36 -30 1 -41 22 -46 90 -3 39 -9 70 -15 71 -14 0 -23 -78 -24 -216 -1 -66 -6
-138 -13 -160 -6 -22 -12 -44 -12 -50 -1 -13 -28 -49 -43 -58 -6 -4 -28 2 -48
14 -23 14 -40 18 -46 12 -15 -15 27 -46 66 -48 19 -1 35 -4 35 -6 -3 -33 -16
-49 -44 -54 -78 -16 -83 -23 -33 -48 18 -9 25 -16 15 -16 -11 -1 -15 -7 -11
-21 4 -15 0 -20 -14 -20 -11 0 -22 -3 -25 -6 -10 -9 4 -44 17 -44 7 0 18 -6
25 -14 9 -12 6 -16 -23 -21 -35 -7 -35 -8 -33 -53 3 -35 9 -51 31 -69 15 -13
25 -27 21 -30 -3 -3 2 -19 11 -34 16 -27 16 -29 -2 -44 -11 -8 -31 -15 -44
-15 -18 0 -22 -3 -14 -11 6 -6 32 -11 57 -11 46 0 53 -4 60 -40 3 -13 11 -37
27 -75 9 -24 11 -156 3 -185 -9 -29 -34 -24 -114 23 -65 38 -184 186 -173 215
4 12 3 15 -5 10 -6 -4 -20 -1 -31 6 -16 10 -19 19 -15 50 4 26 2 38 -6 38 -7
0 -10 -8 -7 -20 6 -24 -4 -32 -20 -15 -7 7 -8 17 -2 26 5 8 9 21 9 29 0 11 -3
11 -12 2 -17 -17 -38 -15 -38 4 0 9 -8 23 -17 30 -11 8 -13 13 -5 14 6 0 12 4
12 10 0 5 -10 9 -22 7 -19 -2 -23 3 -23 31 0 19 5 37 12 41 8 4 10 16 6 31
l-7 25 -6 -24 c-5 -24 -50 -42 -50 -21 0 6 7 10 15 10 17 0 19 9 6 29 -6 10
-13 11 -29 2 -27 -15 -43 -14 -41 2 3 27 -2 37 -20 37 -20 0 -31 -45 -36 -155
-4 -65 13 -155 28 -155 6 0 5 -5 -1 -12 -5 -7 -13 -24 -17 -38 -7 -23 -6 -24
9 -11 15 13 19 13 26 1 5 -9 5 -19 -1 -27 -6 -7 -8 -17 -4 -23 4 -6 1 -18 -7
-27 -11 -15 -11 -16 5 -10 11 4 17 2 17 -8 0 -7 8 -16 18 -18 9 -2 4 -3 -11
-2 -15 1 -30 -2 -33 -7 -3 -4 5 -8 18 -9 13 0 17 -3 10 -6 -9 -3 -10 -9 -3
-17 6 -7 11 -28 13 -47 1 -19 5 -36 9 -39 4 -3 9 -18 10 -35 2 -16 8 -33 14
-37 6 -5 5 -11 -4 -17 -9 -6 -10 -11 -2 -15 6 -4 11 -20 11 -37 0 -16 5 -29
10 -29 6 0 10 -13 10 -30 0 -16 5 -30 11 -30 6 0 9 -6 6 -14 -3 -8 -2 -16 4
-18 5 -2 6 -15 0 -34 -5 -20 -5 -36 0 -41 13 -13 3 -36 -21 -51 -16 -10 -20
-10 -18 0 2 8 -5 12 -16 10 -12 -2 -16 1 -10 10 4 7 -2 5 -13 -5 -18 -16 -22
-16 -33 -2 -14 17 -56 20 -65 5 -3 -5 -15 -10 -25 -10 -11 0 -17 -5 -15 -12 7
-19 -8 -37 -31 -41 -12 -1 -33 -10 -47 -20 -24 -15 -26 -15 -20 -1 5 14 2 14
-23 -2 -16 -10 -32 -23 -35 -28 -4 -5 -12 -5 -18 -2 -6 4 -11 3 -11 -3 0 -7
-8 -7 -25 1 -25 11 -34 28 -14 28 5 0 8 4 5 9 -3 5 -15 7 -26 4 -11 -3 -20 0
-20 6 0 6 -9 11 -20 11 -11 0 -20 4 -20 9 0 5 -13 11 -29 14 -16 3 -42 18 -57
32 -16 15 -41 29 -57 32 -21 4 -27 10 -24 24 3 12 0 16 -9 12 -8 -3 -12 -9 -9
-13 3 -5 1 -11 -4 -14 -10 -7 -26 11 -26 29 0 6 -10 11 -22 13 -16 2 -23 -2
-23 -13 0 -12 -5 -15 -16 -11 -9 3 -20 6 -25 6 -5 0 -9 8 -9 18 -1 16 -1 16
-14 0 -8 -12 -16 -14 -23 -7 -7 7 -14 5 -22 -5 -7 -8 -19 -12 -27 -9 -8 3 -14
-1 -14 -11 0 -10 6 -13 18 -9 9 3 4 -5 -12 -20 -17 -14 -32 -24 -36 -22 -3 2
-12 0 -20 -5 -12 -7 -12 -12 -3 -21 10 -10 16 -9 31 4 26 23 35 21 15 -3 -10
-11 -22 -20 -28 -20 -20 0 -34 -40 -37 -107 -2 -55 1 -73 17 -95 23 -31 35
-38 87 -48 40 -8 83 10 60 24 -18 11 -15 46 4 46 8 0 12 -5 9 -11 -10 -16 27
-40 42 -27 8 7 18 7 26 1 6 -5 25 -10 41 -11 16 -1 37 -9 46 -17 9 -8 21 -15
27 -15 6 0 21 -9 35 -19 13 -11 36 -23 51 -26 14 -4 28 -13 31 -20 3 -8 15
-19 27 -25 17 -10 20 -9 14 1 -5 8 0 6 14 -3 16 -11 37 -14 76 -11 52 5 54 4
61 -21 5 -22 9 -24 21 -15 9 8 12 21 8 36 -4 19 1 31 24 52 26 24 37 27 90 26
34 -1 61 2 61 7 0 4 8 8 18 8 21 0 95 59 101 80 2 8 3 29 3 45 0 17 2 24 4 18
11 -26 22 -12 14 16 -4 16 -6 31 -4 34 7 7 16 70 18 125 1 55 2 57 26 42 9 -6
10 -10 3 -10 -6 0 -11 -9 -10 -21 1 -16 6 -19 25 -14 22 5 23 4 17 -24 -3 -16
-3 -31 2 -34 7 -5 7 -39 1 -154 -1 -22 -8 -35 -20 -39 -11 -3 -17 -12 -14 -20
3 -7 -4 -18 -14 -24 -11 -6 -20 -16 -20 -22 0 -6 -7 -16 -15 -22 -24 -17 -36
-73 -20 -86 8 -7 19 -9 24 -6 5 4 12 2 15 -3 4 -6 17 -4 34 5 32 17 52 18 52
3 0 -6 6 -9 13 -6 6 2 11 10 10 16 -2 6 4 11 12 11 8 0 15 6 15 14 0 7 7 19
15 26 8 7 13 16 10 20 -3 5 1 14 8 22 13 13 16 30 17 95 0 18 7 34 16 37 8 3
12 12 9 18 -4 7 1 4 9 -7 9 -11 14 -25 12 -31 -6 -15 21 -27 37 -17 15 9 99 4
113 -7 6 -6 14 -7 17 -3 4 3 18 1 31 -7 14 -7 36 -10 50 -8 29 6 34 -3 30 -54
-2 -21 1 -40 6 -43 10 -6 1 -45 -10 -45 -17 0 -21 -40 -6 -62 18 -25 20 -38 8
-38 -4 0 -16 14 -25 30 -10 17 -15 30 -11 30 5 0 3 5 -4 12 -7 7 -12 22 -12
34 0 29 -14 38 -30 19 -10 -12 -16 -13 -27 -3 -11 9 -16 9 -22 -1 -6 -8 -31
-13 -74 -12 -80 0 -79 3 -70 -166 6 -129 1 -146 -30 -93 -21 35 -33 38 -42 10
-3 -11 -11 -20 -17 -20 -7 0 -6 5 1 14 9 11 9 16 0 22 -7 4 -15 2 -17 -4 -2
-7 -8 -12 -13 -12 -6 0 -8 4 -4 9 6 11 -26 91 -37 91 -5 0 -8 8 -8 18 0 14 2
15 10 2 5 -8 12 -11 15 -8 12 12 -6 28 -31 28 -14 0 -36 -12 -51 -26 -22 -22
-27 -24 -42 -11 -9 8 -25 17 -36 19 -11 2 -19 10 -17 17 2 8 -4 10 -16 7 -14
-5 -25 3 -43 29 -26 38 -57 54 -69 35 -4 -6 -5 -32 -2 -56 4 -35 2 -44 -11
-44 -9 0 -19 -10 -22 -21 -7 -20 -8 -19 -24 12 -21 45 -42 64 -73 66 -20 1
-25 -3 -25 -20 1 -56 -3 -67 -23 -67 -11 0 -20 7 -20 15 0 17 -35 21 -45 5 -4
-6 5 -24 19 -41 33 -39 33 -57 -1 -65 -46 -9 -73 -26 -73 -45 0 -10 -5 -21
-10 -24 -16 -10 -2 -24 19 -18 15 4 19 0 17 -21 -1 -27 -10 -33 -21 -15 -4 6
-13 8 -19 6 -18 -7 -46 13 -28 20 18 7 15 21 -5 19 -15 -1 -18 7 -18 41 0 48
-12 66 -26 40 -6 -9 -15 -17 -21 -17 -6 0 -5 7 3 16 12 15 11 16 -9 10 -13 -5
-22 -3 -22 3 0 6 5 11 11 11 6 0 9 6 6 13 -2 6 1 21 6 32 6 11 12 30 14 41 3
18 -3 22 -37 28 -38 6 -40 8 -40 42 0 19 5 44 11 55 15 29 2 61 -22 54 -11 -4
-26 0 -35 10 -10 10 -24 13 -38 9 -30 -10 -65 -37 -66 -51 0 -16 -70 -35 -85
-23 -7 6 -24 6 -46 0 -18 -6 -35 -10 -36 -10 -2 0 -3 8 -3 17 0 16 -1 16 -13
-1 -7 -9 -24 -18 -38 -20 -34 -3 -49 -14 -43 -31 4 -8 -7 -20 -28 -31 -39 -20
-49 -33 -43 -55 6 -19 -19 -44 -35 -34 -5 3 -10 1 -10 -5 0 -7 -7 -9 -16 -6
-12 4 -15 2 -10 -9 3 -8 1 -15 -4 -15 -6 0 -10 5 -10 11 0 6 -9 8 -20 4 -18
-6 -20 -3 -14 20 6 24 5 26 -12 17 -11 -5 -24 -7 -31 -5 -17 6 -48 -56 -34
-70 11 -11 41 13 41 33 0 17 25 6 25 -11 0 -8 4 -19 7 -25 4 -6 -6 -24 -22
-39 -17 -16 -30 -34 -30 -39 0 -6 -14 -20 -30 -31 -16 -11 -30 -24 -30 -29 0
-10 -31 -35 -44 -36 -5 0 -4 6 2 13 13 15 -1 42 -17 33 -6 -4 -11 -2 -11 3 0
6 -7 11 -15 11 -9 0 -12 -6 -9 -15 5 -11 2 -13 -10 -9 -11 4 -16 1 -16 -10 0
-9 -7 -16 -15 -16 -8 0 -15 -5 -15 -11 0 -5 -4 -8 -10 -4 -5 3 -16 -8 -25 -25
-8 -16 -13 -30 -10 -30 3 0 -2 -16 -10 -36 -17 -42 -18 -47 -6 -40 5 4 7 -4 4
-16 -8 -38 -37 -88 -50 -88 -7 0 -13 -5 -13 -11 0 -9 16 -7 58 8 25 10 11 -12
-15 -25 -53 -24 -67 -40 -53 -57 9 -11 9 -15 1 -15 -6 0 -15 -8 -18 -17 -9
-23 -64 -106 -77 -116 -6 -5 0 -7 16 -4 21 3 25 1 18 -12 -4 -9 -17 -37 -29
-63 -17 -37 -25 -45 -41 -41 -21 6 -28 33 -9 33 8 0 8 4 0 13 -8 10 -7 17 2
27 10 10 6 12 -20 7 -25 -5 -33 -3 -33 8 0 8 7 15 16 15 8 0 12 5 9 10 -4 6
-11 7 -17 4 -6 -4 -8 -1 -6 7 3 8 11 13 17 11 6 -1 11 4 12 10 1 7 2 27 4 45
1 18 5 39 9 48 8 23 -11 18 -28 -7 -9 -12 -19 -18 -23 -14 -4 4 -1 12 7 17 11
8 12 12 3 16 -7 2 -13 9 -13 14 0 6 5 7 11 3 8 -4 10 7 8 38 -3 33 -1 44 9 41
17 -7 15 5 -3 23 -17 17 -20 44 -5 44 11 0 14 33 3 44 -7 6 -13 50 -14 99 0 9
-7 17 -15 17 -8 0 -14 6 -13 12 5 38 -2 68 -16 68 -8 0 -12 6 -9 14 3 8 1 17
-5 21 -16 9 -13 25 4 25 8 0 15 7 15 15 0 8 5 15 10 15 6 0 10 8 10 17 0 15
-2 15 -14 -2 -13 -18 -15 -18 -30 -2 -9 9 -23 14 -31 11 -9 -4 -15 0 -15 10 0
9 6 16 13 17 6 0 1 6 -13 12 -20 10 -25 19 -25 48 0 20 7 45 16 55 9 11 19 36
23 57 6 31 4 37 -10 37 -15 0 -14 3 5 21 12 12 19 24 16 27 -4 4 -13 -2 -21
-13 -12 -16 -16 -17 -23 -6 -5 7 -8 26 -7 41 2 22 -2 26 -16 22 -10 -2 -18 1
-18 7 0 6 5 11 12 11 15 0 1 13 -17 16 -11 2 -13 -6 -9 -31 3 -19 0 -36 -6
-40 -6 -4 -8 -15 -5 -26 5 -15 1 -19 -15 -19 -16 0 -20 4 -16 16 4 10 -1 26
-11 37 -14 15 -15 21 -5 24 10 4 10 8 1 19 -6 8 -16 14 -22 14 -6 0 -19 7 -29
17 -17 15 -18 15 -19 -3 0 -18 -1 -18 -9 1 -12 27 -12 47 -1 40 5 -3 11 5 13
17 2 16 11 24 28 26 14 2 30 8 35 14 7 7 1 8 -20 3 -49 -12 -60 -11 -60 7 0
10 -5 17 -10 15 -6 -1 -9 -5 -8 -8 1 -4 -9 -6 -22 -5 -23 1 -37 16 -16 16 12
0 9 33 -4 43 -6 4 -4 11 5 18 13 9 12 10 -2 5 -13 -4 -20 2 -24 19 -7 30 -8
30 -40 8 -22 -14 -27 -14 -34 -2 -9 14 7 32 21 23 4 -2 2 7 -4 20 -7 13 -14
23 -18 20 -3 -2 -4 7 -2 20 7 33 -15 43 -23 11 -9 -37 -24 -31 -24 10 0 19 3
35 8 35 4 0 13 9 20 20 7 11 9 20 5 19 -33 -5 -44 3 -42 29 1 15 -3 39 -9 54
-6 15 -12 54 -14 88 -2 38 -7 60 -15 60 -6 0 -10 9 -8 20 2 11 0 20 -4 20 -13
0 -19 69 -6 73 6 3 6 12 -3 28 -10 19 -10 32 -2 53 6 16 12 43 14 60 13 101
112 402 143 434 7 7 13 20 13 28 0 9 14 44 31 80 23 46 38 66 55 70 19 5 22 9
13 20 -6 7 -7 19 -3 26 5 7 7 21 6 31 -4 19 14 23 21 5 6 -13 11 16 8 41 -2 7
1 11 6 8 4 -3 9 11 9 31 2 31 7 71 14 92 1 3 8 -8 15 -25 10 -21 15 -25 16
-12 2 18 5 34 9 42 1 3 3 22 4 43 0 22 7 46 14 54 10 13 10 17 -3 22 -8 3 -15
10 -15 17 0 6 7 9 15 5 9 -3 15 0 15 9 0 8 5 15 11 15 5 0 9 8 8 18 -3 30 1
35 16 22 10 -8 15 -9 15 -2 0 6 -8 15 -17 20 -9 6 -17 20 -19 33 -2 27 14 52
27 43 5 -3 9 2 9 10 0 10 6 13 15 10 8 -4 15 -1 15 5 0 6 -11 11 -25 11 -14 0
-25 3 -25 6 0 10 28 34 41 34 7 0 5 8 -7 21 -19 22 -19 22 6 16 15 -3 33 0 45
9 18 13 17 14 -14 8 -32 -7 -33 -6 -22 15 12 22 31 29 31 11 0 -5 7 -10 15
-10 8 0 15 5 15 10 0 6 -8 10 -17 10 -15 0 -16 2 -3 10 8 5 11 13 6 17 -5 4
-11 2 -13 -4 -3 -7 -9 -13 -14 -13 -14 0 -11 38 4 44 8 3 6 10 -8 21 -19 15
-19 17 -2 26 18 11 24 39 7 39 -20 0 -10 19 12 22 21 3 21 3 3 22 -18 18 -18
19 4 35 14 11 20 23 15 34 -4 11 -1 17 7 17 10 0 10 3 1 12 -17 17 -15 28 6
28 12 0 14 2 4 8 -14 9 -6 42 10 42 6 0 8 -7 4 -15 -3 -9 0 -15 10 -15 9 0 12
5 8 12 -5 7 -1 9 13 6 18 -5 19 -3 9 18 -6 13 -17 24 -23 24 -7 0 -13 6 -13
13 0 23 12 27 26 9 13 -16 13 -16 14 1 0 10 -5 27 -10 38 -7 13 -7 19 0 19 5
0 10 14 10 32 0 17 8 40 18 51 9 11 11 17 5 13 -7 -4 -13 -2 -13 3 0 6 -8 11
-17 11 -38 0 -46 15 -29 48 20 38 20 42 0 42 -23 0 -11 25 13 26 27 1 45 13
38 25 -9 14 23 42 41 35 11 -4 14 -1 9 13 -3 12 0 21 11 25 13 5 14 9 4 21
-10 12 -8 14 7 10 10 -2 26 -6 36 -10 10 -4 17 -3 17 4 0 6 -7 11 -15 11 -9 0
-12 6 -9 15 4 10 0 15 -11 15 -13 0 -15 3 -6 13 8 11 5 17 -16 26 -22 10 -24
14 -12 22 20 13 29 11 29 -6 0 -8 4 -15 10 -15 5 0 7 7 4 15 -9 21 32 20 44
-2 7 -12 4 -21 -12 -34 -12 -11 -16 -18 -8 -19 7 0 10 -4 7 -10 -3 -5 -1 -10
4 -10 6 0 11 7 11 16 0 11 6 14 21 9 16 -5 20 -3 17 12 -2 10 2 17 7 16 6 -1
10 9 10 22 0 20 -4 23 -25 19 -22 -4 -22 -3 -5 5 11 5 28 12 38 15 9 3 17 10
17 15 0 6 -7 8 -15 5 -8 -4 -17 1 -21 10 -3 9 -11 13 -18 9 -6 -3 1 5 17 20
22 21 27 35 27 72 0 40 3 47 26 55 35 14 41 12 19 -4 -11 -8 -23 -12 -26 -10
-9 5 -5 -53 4 -62 4 -4 7 2 7 14 0 12 5 22 10 22 6 0 10 -7 10 -15 0 -8 5 -15
11 -15 6 0 9 7 5 15 -3 9 0 15 10 15 8 0 17 7 20 15 4 8 10 12 16 9 5 -4 5
-10 -1 -18 -6 -6 -6 -18 -2 -25 7 -11 11 -10 19 5 7 14 6 25 -4 39 -18 24 -18
35 1 35 9 0 15 -9 15 -21 0 -16 5 -20 20 -16 13 3 21 -1 25 -14 6 -19 25 -27
25 -10 0 15 32 22 45 11 10 -8 15 -6 20 10 4 11 17 27 29 35 20 14 26 14 52 0
28 -14 30 -14 51 9 19 23 23 24 35 9 10 -13 10 -17 1 -20 -7 -3 -13 -8 -13
-12 0 -7 25 -11 77 -11 20 0 35 -6 41 -17 8 -14 13 -15 24 -5 8 6 17 9 20 6 3
-3 5 3 4 13 0 10 6 18 14 18 8 0 15 -5 15 -12 0 -17 67 -93 77 -87 5 3 4 12
-2 19 -7 8 -9 23 -5 34 5 16 3 20 -9 15 -9 -3 -16 -1 -16 6 0 7 -8 9 -22 5
-22 -7 -23 -7 -4 11 13 14 20 16 23 7 7 -20 23 -15 23 8 0 11 -5 17 -10 14 -6
-3 -20 -3 -32 1 l-21 6 24 19 24 20 -29 -7 c-20 -5 -27 -3 -22 4 4 7 -4 9 -24
7 -33 -4 -35 -1 -19 43 7 21 17 30 30 29 10 -1 19 -4 19 -8 0 -4 23 -21 50
-38 28 -17 50 -36 50 -43 0 -6 3 -8 7 -5 3 4 12 2 20 -4 10 -9 18 -8 33 6 21
19 23 16 20 -22 -1 -18 4 -23 23 -23 14 0 28 6 31 13 3 6 4 -1 1 -17 -5 -23
-3 -27 9 -23 9 4 15 3 13 -1 -1 -4 1 -7 4 -7 3 0 14 -6 23 -14 9 -8 38 -25 64
-38 26 -13 61 -32 78 -43 l31 -20 -1 30 c-1 20 -6 30 -16 30 -22 0 -62 29 -55
40 9 14 -6 60 -19 60 -6 0 -20 7 -30 15 -16 12 -17 18 -8 27 9 9 12 9 12 0 0
-7 4 -11 9 -10 5 2 24 -14 44 -34 20 -21 39 -38 43 -38 4 0 14 -8 23 -19 9
-10 31 -20 49 -23 40 -6 41 0 3 13 -35 12 -50 39 -21 39 10 0 25 -7 33 -15 12
-11 17 -12 21 -2 5 9 7 9 12 0 9 -20 31 -15 37 8 7 27 -1 49 -19 49 -8 0 -14
7 -14 15 0 19 2 19 47 0 44 -19 76 -54 70 -77 -7 -25 11 -33 32 -14 25 23 28
21 36 -31 8 -57 19 -68 76 -81 l44 -10 -39 -1 -40 -1 22 -20 22 -21 22 21 c26
24 42 26 34 4 -5 -14 -1 -16 24 -10 26 5 32 2 40 -19 17 -44 47 -25 70 44 7
22 17 41 22 41 4 0 8 10 8 21 0 32 54 120 97 160 59 54 108 89 126 89 8 0 17
3 19 8 2 4 37 18 78 31 126 39 128 41 136 86 7 42 21 76 36 86 5 3 25 5 44 3
19 -1 34 1 34 5 0 13 191 5 200 -8 4 -8 10 -9 14 -3 7 12 84 6 101 -8 20 -16
72 -1 79 24 5 17 8 18 15 6 6 -8 13 -11 17 -7 4 3 -4 15 -17 26 -20 16 -21 21
-10 34 27 33 51 31 91 -8 36 -35 40 -37 91 -32 110 9 234 38 256 59 20 18 23
19 29 5 3 -8 13 -18 21 -21 34 -14 222 -37 278 -35 57 2 245 -7 349 -16 76 -8
239 -7 258 0 10 4 33 31 53 60 19 29 48 64 64 77 16 14 32 34 35 46 7 20 -9
60 -29 74 -5 4 -10 22 -10 40 0 28 -4 33 -25 36 -20 2 -22 1 -10 -7 10 -8 11
-11 2 -11 -7 0 -17 11 -22 24 -12 32 -23 38 -76 39 -25 0 -48 5 -52 11 -4 6
-18 11 -32 11 -16 0 -25 6 -25 15 0 8 -10 19 -22 25 -13 5 -23 15 -23 22 0 7
-6 13 -14 13 -21 0 -26 25 -10 54 18 35 0 70 -31 60 -36 -12 -110 -10 -108 3
2 7 -4 10 -12 7 -9 -4 -21 -2 -28 4 -16 13 -96 22 -102 12 -7 -12 -103 -11
-111 1 -4 6 -10 6 -19 -1 -10 -8 -15 -8 -20 0 -5 7 -11 8 -19 1 -13 -11 -156
-20 -156 -9 0 3 -9 4 -20 1 -11 -3 -31 2 -44 11 -23 14 -26 14 -41 0 -8 -9
-22 -14 -30 -11 -7 3 -19 -1 -25 -9 -7 -8 -19 -14 -26 -14 -8 0 -14 -4 -14
-10 0 -13 -28 -2 -33 13 -2 7 -3 4 -1 -6 2 -15 -2 -18 -21 -13 -21 5 -39 -5
-47 -29 -1 -5 -13 -10 -25 -10 -12 -1 -33 -11 -47 -24 -17 -16 -26 -19 -31
-10 -6 8 -4 10 5 4 9 -5 11 -4 6 3 -12 21 -28 13 -21 -10 6 -16 4 -20 -8 -15
-9 3 -32 -9 -57 -30 -35 -30 -49 -36 -87 -35 -77 1 -120 52 -122 145 -2 73 91
212 197 296 29 24 111 138 113 157 0 5 17 33 37 63 35 51 132 131 159 131 6 0
18 9 26 20 8 11 17 17 22 12 4 -4 5 2 0 13 -14 38 -10 48 25 58 32 10 33 11
10 15 -14 2 -28 9 -32 15 -5 8 -15 4 -31 -11 -22 -20 -78 -31 -76 -14 4 21 -3
31 -16 26 -13 -5 -14 -2 -6 19 12 30 -3 40 -48 31 -35 -7 -52 13 -27 31 14 10
27 10 69 -1 62 -16 57 -16 57 -6 0 14 -95 40 -127 35 -25 -4 -33 -2 -33 10 0
8 7 18 16 21 26 10 10 31 -21 28 -25 -3 -27 -2 -16 11 7 9 19 13 27 10 8 -3
21 -2 31 1 15 6 14 8 -3 20 -17 13 -16 15 16 42 19 16 43 29 54 29 31 0 27 37
-4 46 -17 5 -19 7 -7 8 11 1 17 7 14 14 -2 6 -11 10 -18 8 -39 -10 -86 -11
-99 -2 -12 9 -8 17 28 49 40 35 54 62 32 62 -5 0 -13 -6 -17 -14 -12 -20 -48
-36 -81 -36 -16 0 -35 -7 -42 -15 -7 -9 -31 -30 -53 -47 -35 -28 -40 -30 -49
-15 -12 22 -26 22 -24 0 1 -12 -7 -16 -30 -16 -16 -1 -36 3 -43 7 -7 5 -20 1
-32 -10 -12 -11 -19 -13 -19 -5 0 8 -7 10 -19 6 -20 -6 -38 20 -21 30 6 4 10
11 10 17 0 7 -14 -1 -32 -18 -22 -20 -29 -24 -25 -11 5 13 2 18 -11 16 -9 -1
-24 1 -33 5 -8 4 -28 2 -43 -4 -40 -15 -99 -13 -90 3 4 6 -2 3 -14 -7 -22 -19
-22 -19 -22 2 0 11 6 22 13 25 6 2 9 8 4 12 -4 5 -13 3 -19 -3 -7 -7 -24 -12
-39 -12 -15 0 -35 -7 -43 -16 -9 -8 -26 -14 -39 -13 -12 2 -28 0 -34 -4 -16
-10 -17 5 -1 21 6 6 9 15 5 19 -4 4 -13 1 -19 -5 -15 -15 -52 -16 -43 -2 3 6
1 10 -5 10 -17 0 -24 -31 -9 -41 8 -5 12 -9 9 -10 -3 0 -15 -2 -27 -5 -24 -4
-40 11 -23 21 15 9 -7 35 -30 35 -10 0 -20 7 -24 15 -7 20 -25 19 -33 -2 -7
-20 -23 -33 -38 -33 -5 1 -2 6 7 14 13 10 15 15 6 24 -9 9 -9 12 1 12 8 0 7 5
-5 17 -15 16 -17 16 -31 -3 -13 -18 -14 -17 -8 9 7 24 4 28 -25 33 -17 4 -34
14 -38 23 -3 9 -12 22 -19 29 -7 8 -11 18 -8 22 3 5 -4 14 -15 20 -11 6 -20
17 -20 25 0 8 -5 15 -11 15 -7 0 -20 9 -30 21 -10 12 -23 18 -30 14 -8 -6 -8
-9 0 -14 8 -5 4 -14 -10 -27 -22 -19 -22 -19 -15 4 5 13 3 22 -3 22 -6 0 -11
7 -11 15 0 8 -7 15 -16 15 -12 0 -15 -6 -10 -26z m-439 -182 c-3 -3 -11 0 -18
7 -9 10 -8 11 6 5 10 -3 15 -9 12 -12z m1070 -92 c-3 -5 -11 -10 -16 -10 -6 0
-7 5 -4 10 3 6 11 10 16 10 6 0 7 -4 4 -10z m205 -55 c0 -9 -9 -15 -25 -15
-29 0 -34 16 -7 23 30 8 32 7 32 -8z m515 -44 c3 -5 0 -13 -5 -16 -15 -9 -80
4 -80 15 0 13 77 13 85 1z m-1649 -38 c-10 -10 -19 5 -10 18 6 11 8 11 12 0 2
-7 1 -15 -2 -18z m1570 -58 c-3 -8 2 -21 10 -30 18 -17 11 -19 -17 -5 -23 13
-26 50 -3 50 10 0 14 -6 10 -15z m-1646 -30 c-7 -9 -15 -13 -17 -11 -7 7 7 26
19 26 6 0 6 -6 -2 -15z m1605 -5 c3 -5 2 -10 -4 -10 -5 0 -13 5 -16 10 -3 6
-2 10 4 10 5 0 13 -4 16 -10z m-1635 -14 c0 -3 -4 -8 -10 -11 -5 -3 -10 -1
-10 4 0 6 5 11 10 11 6 0 10 -2 10 -4z m-1310 -215 c0 -6 -4 -13 -10 -16 -5
-3 -10 1 -10 9 0 9 5 16 10 16 6 0 10 -4 10 -9z m40 -53 c0 -6 -6 -5 -15 2 -8
7 -15 14 -15 16 0 2 7 1 15 -2 8 -4 15 -11 15 -16z m-50 2 c0 -5 -4 -10 -9
-10 -6 0 -13 5 -16 10 -3 6 1 10 9 10 9 0 16 -4 16 -10z m-270 -318 c0 -14
-23 -32 -42 -32 -25 0 -22 19 5 30 28 11 37 12 37 2z m-112 -250 c-10 -2 -18
-9 -18 -17 0 -7 -7 -15 -15 -19 -8 -3 -15 -1 -15 4 0 6 4 10 9 10 5 0 12 9 16
19 4 14 11 18 23 13 16 -6 16 -7 0 -10z m4486 -240 c3 -9 31 -42 61 -72 33
-34 55 -64 55 -77 0 -25 -3 -26 -37 -17 -24 7 -73 84 -73 115 0 10 -9 23 -20
29 -11 6 -17 16 -14 25 8 20 21 19 28 -3z m-890 -103 c24 -11 66 -81 73 -122
2 -13 -4 -10 -23 12 -14 17 -49 42 -77 57 -66 32 -76 42 -57 54 20 13 54 12
84 -1z m-185 -30 c-8 -5 -23 -9 -34 -9 -17 0 -17 2 5 14 27 14 52 10 29 -5z
m-3727 -81 c-7 -7 -12 -8 -12 -2 0 14 12 26 19 19 2 -3 -1 -11 -7 -17z m4776
-3 c14 -5 14 -8 2 -15 -15 -9 -349 -11 -365 -2 -32 20 315 36 363 17z m-1272
-26 c7 -12 -15 -31 -31 -26 -5 2 -11 11 -13 20 -4 19 32 24 44 6z m-3535 -36
c12 -15 12 -16 -2 -11 -9 4 -22 1 -28 -5 -8 -8 -11 -7 -11 4 0 32 21 37 41 12z
m-71 -73 c0 -5 -4 -10 -10 -10 -5 0 -10 5 -10 10 0 6 5 10 10 10 6 0 10 -4 10
-10z m1665 -229 c-6 -6 -18 -4 -30 6 -16 13 -17 15 -2 10 10 -4 17 -1 17 5 0
9 3 9 12 0 8 -8 8 -15 3 -21z m206 -18 c13 -16 12 -17 -3 -4 -10 7 -18 15 -18
17 0 8 8 3 21 -13z m-141 -28 c0 -9 -6 -12 -15 -9 -8 4 -12 10 -9 15 8 14 24
10 24 -6z m44 -13 c2 -4 1 -13 -3 -20 -4 -8 -11 -5 -19 8 -10 16 -10 20 2 20
8 0 17 -4 20 -8z m136 -2 c0 -5 -4 -10 -10 -10 -5 0 -10 5 -10 10 0 6 5 10 10
10 6 0 10 -4 10 -10z m220 -5 c0 -8 -2 -15 -4 -15 -2 0 -6 7 -10 15 -3 8 -1
15 4 15 6 0 10 -7 10 -15z m-220 -66 c0 -4 -7 -6 -15 -3 -8 4 -15 10 -15 15 0
4 7 6 15 3 8 -4 15 -10 15 -15z m268 3 c2 -7 -6 -12 -17 -12 -21 0 -27 11 -14
24 9 9 26 2 31 -12z m-595 -42 c-5 -20 -15 -25 -26 -13 -5 4 18 30 30 33 0 0
-1 -9 -4 -20z m942 -100 c9 -16 22 -30 30 -30 20 0 19 -16 -1 -24 -20 -8 -57
22 -50 41 3 7 1 13 -4 13 -6 0 -10 7 -10 15 0 25 18 17 35 -15z m-1715 -140
c0 -5 -2 -10 -4 -10 -3 0 -8 5 -11 10 -3 6 -1 10 4 10 6 0 11 -4 11 -10z m-46
-164 c-6 -26 -15 -32 -27 -19 -4 3 1 15 10 26 10 11 12 17 6 13 -14 -8 -18 6
-6 17 13 13 24 -10 17 -37z m-9 -176 c3 -5 1 -10 -5 -10 -6 0 -8 -11 -6 -24 6
-31 -20 -25 -30 6 -8 28 26 51 41 28z m-30 -69 c6 -1 10 -7 10 -13 0 -21 -27
-14 -44 11 -15 23 -15 24 4 14 11 -6 25 -11 30 -12z m-28 -77 c2 -5 -9 -11
-23 -12 -23 -2 -25 0 -14 13 14 16 31 16 37 -1z m3434 -658 c15 14 18 14 33
-1 9 -9 16 -20 16 -25 0 -10 -126 -24 -141 -14 -6 4 -21 7 -32 8 -32 2 -33 26
-2 26 21 0 26 4 21 16 -5 13 -2 15 14 11 11 -3 23 0 27 6 4 6 14 0 27 -16 20
-25 23 -26 37 -11z m-192 -17 c-8 -4 -10 -11 -7 -15 14 -14 -26 -38 -68 -41
-39 -2 -45 1 -50 23 -8 33 3 42 21 18 14 -19 14 -19 15 2 0 18 6 20 51 21 29
0 45 -3 38 -8z m382 -21 c12 -18 -8 -37 -34 -31 -29 7 -87 33 -87 39 0 3 5 2
10 -1 6 -3 10 -3 10 2 0 13 92 5 101 -9z m-690 -134 c17 -19 20 -28 11 -31 -7
-3 -31 -24 -53 -48 -45 -48 -86 -62 -106 -37 -16 22 -16 28 2 46 8 8 12 22 9
30 -4 10 -1 16 9 16 9 0 22 8 29 18 27 39 67 41 99 6z m979 -20 c29 -12 73
-75 80 -115 7 -35 5 -39 -13 -39 -12 0 -41 22 -70 53 -63 67 -80 93 -74 111 6
14 24 12 77 -10z m-380 -44 c30 -30 29 -67 -1 -116 -10 -17 -19 -38 -19 -47 0
-8 -8 -25 -18 -37 -27 -34 -68 -21 -89 28 -24 55 -21 89 10 118 15 14 27 30
27 37 0 38 58 49 90 17z m-752 -72 c6 -7 9 -29 7 -48 -2 -19 -4 -38 -4 -43 -1
-4 -12 -13 -26 -19 -18 -8 -24 -17 -19 -30 3 -11 -1 -20 -11 -24 -13 -5 -15
-14 -11 -39 5 -27 2 -37 -16 -52 -24 -19 -29 -59 -13 -97 5 -11 4 -26 -3 -37
-7 -10 -12 -30 -12 -44 0 -14 -9 -34 -20 -45 -21 -21 -40 -26 -40 -12 0 5 -9
19 -20 32 -12 13 -18 30 -15 38 3 8 8 42 11 76 6 76 12 96 28 96 8 0 11 12 8
35 -3 22 2 45 12 60 9 13 16 31 16 40 0 19 24 19 44 0 24 -25 31 -17 7 9 -27
29 -21 67 16 96 30 23 46 25 61 8z m1271 -119 c13 -17 21 -33 17 -36 -10 -11
-56 27 -56 47 0 27 11 24 39 -11z m45 -101 c-3 -4 3 -8 13 -8 46 0 70 -133 37
-199 -13 -26 -18 -29 -35 -20 -26 13 -35 38 -49 130 -12 83 -7 108 20 106 10
-1 16 -5 14 -9z m-4964 -88 c0 -5 -5 -10 -11 -10 -5 0 -7 5 -4 10 3 6 8 10 11
10 2 0 4 -4 4 -10z m-203 -110 c1 -11 0 -20 -2 -20 -2 0 -9 9 -15 20 -8 15 -8
20 3 20 7 0 13 -9 14 -20z m-62 -10 c3 -5 -3 -10 -14 -10 -12 0 -21 5 -21 10
0 6 6 10 14 10 8 0 18 -4 21 -10z m107 -42 c-6 -6 -15 -8 -19 -4 -4 4 -1 11 7
16 19 12 27 3 12 -12z m23 -24 c-9 -9 -19 -13 -23 -10 -3 4 0 11 8 16 24 15
33 11 15 -6z m3340 -14 c-3 -5 -15 -10 -26 -10 -10 0 -19 5 -19 10 0 6 12 10
26 10 14 0 23 -4 19 -10z m5 -30 c0 -5 -5 -10 -11 -10 -5 0 -7 5 -4 10 3 6 8
10 11 10 2 0 4 -4 4 -10z m1780 -97 c0 -6 4 -13 8 -15 5 -1 12 -15 15 -29 6
-23 1 -30 -34 -53 -25 -17 -39 -33 -35 -41 7 -20 -12 -29 -30 -14 -11 9 -14
25 -10 58 2 25 5 56 5 68 1 12 11 31 22 42 18 16 25 18 40 8 11 -7 19 -17 19
-24z m-637 6 c26 -12 47 -47 47 -79 0 -31 -36 -60 -74 -60 -25 0 -36 -5 -41
-19 -3 -11 -12 -24 -20 -31 -28 -23 -75 30 -75 86 0 28 25 43 43 25 18 -18 24
-13 31 29 8 54 40 71 89 49z m-806 -39 c42 -22 53 -36 53 -68 0 -31 26 -75 71
-123 37 -39 49 -90 27 -116 -14 -18 -48 -16 -48 1 0 8 -8 17 -17 20 -23 7 -57
59 -74 111 -8 22 -26 56 -42 76 -24 31 -27 41 -21 77 4 23 8 42 10 42 2 0 21
-9 41 -20z m-830 -172 c-3 -8 -6 -5 -6 6 -1 11 2 17 5 13 3 -3 4 -12 1 -19z
m2184 6 c12 -14 11 -16 -5 -13 -11 2 -21 10 -24 17 -5 17 13 15 29 -4z m-156
-185 c-3 -4 -1 -10 5 -14 13 -8 -16 -65 -34 -65 -7 0 -26 -11 -42 -25 -16 -14
-35 -25 -43 -25 -7 0 -21 -11 -32 -24 -24 -30 -104 -44 -129 -21 -19 17 -15
75 5 75 6 0 20 9 30 20 10 11 27 20 37 20 10 0 24 5 31 10 7 6 39 30 72 55
l60 44 22 -21 c12 -12 20 -24 18 -29z m-790 -52 c17 -5 37 -12 45 -15 8 -3 60
-5 115 -6 81 -1 110 -6 151 -24 84 -38 99 -112 36 -180 -7 -8 -19 -29 -26 -47
-27 -65 -113 -82 -202 -41 -60 28 -76 49 -63 85 8 21 5 29 -23 58 -18 18 -50
42 -73 53 -78 38 -115 91 -82 118 15 13 57 21 77 14 8 -2 29 -9 45 -15z
m-4115 3 c0 -5 -2 -10 -4 -10 -3 0 -8 5 -11 10 -3 6 -1 10 4 10 6 0 11 -4 11
-10z m8 -78 c6 -18 -15 -14 -22 4 -4 10 -1 14 6 12 6 -2 14 -10 16 -16z m5772
-42 c0 -5 -5 -10 -11 -10 -5 0 -7 5 -4 10 3 6 8 10 11 10 2 0 4 -4 4 -10z
m300 -100 c0 -5 -4 -10 -9 -10 -6 0 -13 5 -16 10 -3 6 1 10 9 10 9 0 16 -4 16
-10z m-5490 -143 c0 -5 -4 -5 -10 -2 -5 3 -10 14 -10 23 0 15 2 15 10 2 5 -8
10 -19 10 -23z m25 23 c3 -5 1 -10 -4 -10 -6 0 -11 5 -11 10 0 6 2 10 4 10 3
0 8 -4 11 -10z m-11 -92 c-3 -4 -15 -8 -27 -8 -16 0 -19 3 -8 9 7 5 10 14 6
21 -5 8 -1 8 13 -1 12 -7 18 -17 16 -21z m15 -29 c-22 -14 -33 -10 -19 6 7 8
17 12 22 9 6 -4 5 -10 -3 -15z m2898 -106 c1 -13 -3 -23 -8 -23 -6 0 -7 5 -4
10 3 6 2 10 -2 10 -5 0 -10 17 -11 38 -2 36 -2 36 11 12 7 -14 13 -35 14 -47z
m-2772 47 c3 -6 -1 -7 -9 -4 -18 7 -21 14 -7 14 6 0 13 -4 16 -10z m5 -36 c0
-2 -7 -4 -15 -4 -8 0 -15 4 -15 10 0 5 7 7 15 4 8 -4 15 -8 15 -10z m56 -142
c-15 -15 -16 -14 -16 9 0 14 6 31 13 38 10 10 13 8 15 -10 2 -12 -3 -29 -12
-37z m2726 -34 c-9 -9 -15 -9 -24 0 -9 9 -7 12 12 12 19 0 21 -3 12 -12z
m-2612 -8 c8 -5 11 -12 7 -17 -5 -4 -13 -1 -18 7 -9 13 -10 12 -6 -1 3 -10 -5
-26 -20 -39 l-26 -22 7 25 c4 16 1 27 -7 30 -9 4 -8 8 3 16 18 13 40 14 60 1z
m2577 -22 c-3 -8 -6 -5 -6 6 -1 11 2 17 5 13 3 -3 4 -12 1 -19z m-2662 2 c3
-5 2 -10 -4 -10 -5 0 -13 5 -16 10 -3 6 -2 10 4 10 5 0 13 -4 16 -10z m85 -64
c0 -8 -4 -18 -10 -21 -5 -3 -10 3 -10 14 0 12 5 21 10 21 6 0 10 -6 10 -14z
m4672 -25 c2 -28 0 -37 -9 -34 -14 6 -16 17 -7 51 9 31 11 28 16 -17z m-3327
-1 c3 -5 1 -10 -4 -10 -6 0 -11 5 -11 10 0 6 2 10 4 10 3 0 8 -4 11 -10z
m1250 -18 c-8 -8 -25 10 -19 20 4 6 9 5 15 -3 4 -7 6 -15 4 -17z m-475 -26 c0
-3 -4 -8 -10 -11 -5 -3 -10 -1 -10 4 0 6 5 11 10 11 6 0 10 -2 10 -4z m2560
-44 c0 -19 -3 -23 -11 -15 -6 6 -18 9 -25 6 -17 -6 -18 1 -2 26 16 25 38 15
38 -17z m-3350 -26 c0 -11 -19 -15 -25 -6 -3 5 1 10 9 10 9 0 16 -2 16 -4z
m66 -58 c4 -6 3 -8 -4 -4 -5 3 -12 0 -15 -6 -2 -7 -8 -10 -12 -6 -8 8 2 28 15
28 5 0 12 -5 16 -12z m-104 -25 c-10 -4 -10 -8 -1 -19 17 -20 46 -17 52 6 7
27 37 15 37 -15 0 -22 23 -55 39 -55 4 0 11 4 17 10 14 14 52 -15 56 -43 2
-12 10 -22 18 -22 8 0 18 -4 22 -10 4 -6 8 -2 8 8 0 9 5 17 10 17 6 0 10 6 8
13 -1 6 6 24 16 39 13 21 25 27 42 24 25 -5 71 -33 67 -41 -8 -15 -1 -25 17
-25 11 0 20 7 20 15 0 8 4 15 9 15 5 0 11 7 13 15 2 10 7 12 18 5 12 -8 13
-11 1 -19 -9 -6 -10 -11 -2 -15 6 -4 11 -4 11 1 0 4 11 8 24 8 13 0 22 -5 19
-11 -2 -7 0 -15 6 -19 6 -3 11 2 11 12 1 16 1 17 10 1 6 -9 8 -33 5 -53 -6
-54 16 -86 88 -127 30 -17 61 -14 36 4 -10 6 -7 7 9 3 19 -6 63 -11 114 -14 5
-1 7 -5 5 -9 -1 -5 28 -38 66 -74 42 -41 67 -73 67 -87 0 -11 5 -21 11 -21 5
0 8 -4 4 -9 -3 -5 -1 -12 5 -16 6 -4 7 -11 4 -17 -4 -6 1 -8 15 -3 15 4 21 2
21 -8 0 -21 49 -67 91 -85 29 -12 35 -20 31 -36 -3 -12 -10 -24 -16 -28 -8 -5
-7 -11 2 -20 10 -10 14 -10 21 0 6 10 10 10 21 -3 7 -8 9 -15 5 -15 -4 0 -2
-7 5 -15 12 -14 6 -35 -10 -35 -5 0 -7 7 -3 16 4 12 1 15 -13 12 -13 -2 -18
-10 -16 -25 2 -14 -4 -23 -18 -28 -11 -3 -18 -10 -15 -15 3 -5 -3 -14 -12 -20
-16 -10 -15 -10 5 -5 13 4 22 2 22 -4 0 -6 -6 -11 -12 -11 -8 -1 -5 -6 6 -15
11 -8 15 -19 10 -27 -7 -11 -10 -53 -4 -60 1 -2 3 -13 6 -25 5 -29 -14 -40
-31 -17 -8 11 -15 14 -15 8 0 -6 9 -19 19 -28 11 -10 17 -24 15 -31 -3 -7 -1
-16 5 -20 18 -11 12 -27 -8 -20 -14 4 -20 0 -23 -18 -4 -20 -1 -23 16 -19 17
3 14 -2 -14 -28 -19 -18 -36 -28 -38 -21 -2 6 -10 11 -18 11 -8 0 -11 -6 -8
-15 3 -8 0 -17 -8 -20 -9 -4 -13 -17 -11 -38 2 -18 0 -27 -3 -20 -4 9 -11 9
-30 1 -27 -13 -29 -19 -12 -36 8 -8 9 -12 1 -12 -6 0 -13 6 -16 13 -4 10 -7
10 -18 0 -19 -19 -34 -16 -18 4 12 15 12 16 -3 11 -14 -6 -15 -2 -7 25 5 18 9
34 9 36 0 2 6 1 13 -2 7 -3 13 7 16 27 7 57 6 131 -2 150 -7 17 -10 14 -28
-20 -11 -21 -36 -53 -55 -69 -19 -17 -34 -34 -34 -39 0 -4 -10 -22 -22 -39
-24 -33 -50 -76 -70 -114 -6 -13 -16 -23 -22 -23 -10 0 -34 -19 -93 -72 -34
-30 -63 -66 -63 -77 0 -6 -7 -11 -15 -11 -8 0 -15 -4 -15 -10 0 -5 -7 -10 -15
-10 -8 0 -15 -7 -15 -15 0 -8 -7 -15 -15 -15 -8 0 -15 -7 -15 -15 0 -8 -9 -15
-20 -15 -11 0 -20 -4 -20 -10 0 -5 -22 -33 -50 -62 -27 -29 -50 -56 -50 -60 0
-4 -7 -8 -15 -8 -9 0 -18 -7 -21 -15 -4 -8 -10 -12 -15 -9 -5 3 -9 0 -9 -6 0
-6 -6 -10 -12 -9 -23 3 -38 -1 -36 -8 2 -5 -1 -10 -7 -12 -5 -2 -21 -8 -35
-13 -41 -17 -129 -15 -135 2 -5 13 -7 13 -15 0 -8 -13 -10 -12 -10 3 0 9 -2
17 -4 17 -2 0 -12 3 -20 6 -12 5 -15 2 -10 -10 5 -12 0 -16 -20 -16 -14 0 -26
4 -26 9 0 5 -20 7 -45 6 -25 -2 -47 1 -51 6 -3 5 -16 9 -29 9 -29 0 -92 28
-120 53 -11 10 -32 21 -46 24 -20 4 -25 10 -22 24 4 14 0 19 -14 19 -22 0 -53
33 -53 56 0 22 -39 84 -52 84 -6 0 -8 6 -5 13 3 7 -4 19 -14 25 -10 7 -19 21
-19 32 0 10 -11 41 -26 67 -14 26 -23 56 -20 65 2 10 1 18 -2 18 -4 0 -7 30
-6 68 0 37 -4 76 -10 87 -6 11 -11 27 -12 35 -1 8 -2 23 -3 33 -1 21 -38 23
-43 2 -3 -14 -6 -14 -26 0 -16 12 -21 22 -16 41 3 13 2 24 -4 24 -10 0 -8 42
3 59 3 7 -2 11 -14 11 -12 0 -21 -7 -21 -15 0 -8 -6 -14 -12 -12 -7 1 -12 -5
-11 -13 2 -10 -6 -16 -22 -16 -15 -1 -25 3 -25 12 0 8 -5 14 -11 14 -6 0 -8 7
-5 17 4 9 1 20 -6 25 -10 6 -10 10 1 17 11 7 9 14 -15 35 -16 14 -38 26 -49
26 -18 1 -18 2 3 11 13 5 29 6 35 2 18 -11 51 -12 64 -1 15 12 24 -4 12 -22
-12 -20 -12 -63 1 -55 6 3 10 17 10 30 0 17 4 23 14 19 8 -3 17 -1 21 5 3 6 1
11 -5 11 -7 0 -10 7 -7 14 4 10 1 13 -9 9 -7 -3 -14 -1 -14 5 0 5 -11 13 -25
16 -32 8 -32 33 -2 66 19 21 21 28 11 38 -19 18 -44 15 -44 -5 0 -16 -1 -16
-17 -1 -15 16 -15 18 8 37 29 24 43 27 35 6 -9 -23 6 -18 41 15 18 17 38 30
45 30 7 0 19 10 27 23 7 12 10 19 6 15 -5 -4 -14 -3 -21 3 -9 8 -11 5 -7 -10
4 -16 1 -21 -15 -21 -24 0 -37 16 -22 25 6 4 8 11 5 16 -4 5 2 12 12 16 10 3
26 15 37 26 15 16 16 21 5 28 -11 7 -12 11 -1 17 10 7 10 11 -3 22 -13 11 -14
10 -9 -5 6 -15 3 -17 -14 -12 -13 3 -28 0 -35 -7 -7 -7 -25 -16 -40 -20 -31
-7 -36 -26 -7 -26 11 0 20 -7 20 -15 0 -8 -4 -15 -9 -15 -5 0 -14 7 -21 15 -7
8 -18 15 -25 15 -13 0 -9 47 6 55 4 3 6 12 2 20 -6 18 1 19 28 4 14 -7 24 -7
33 0 7 6 15 9 18 6 3 -3 13 3 22 14 17 18 16 19 -3 26 -12 3 -19 11 -15 16 3
6 13 8 21 5 8 -3 11 -1 8 4 -14 22 -42 10 -51 -22 -5 -17 -15 -33 -23 -36 -9
-3 -11 0 -6 8 5 9 4 11 -3 6 -7 -4 -12 -1 -12 7 0 13 68 77 91 85 5 2 9 10 9
18 0 9 5 12 11 8 8 -4 8 -9 0 -17 -16 -16 -13 -47 4 -47 9 0 26 9 38 21 12 11
30 18 39 15 10 -2 18 0 18 5 0 5 7 9 15 9 8 0 25 11 39 24 13 14 40 32 60 40
35 15 49 36 24 36 -7 1 1 7 17 14 31 14 57 10 34 -5 -7 -4 -11 -11 -7 -14 8
-8 40 8 63 31 14 15 41 22 107 27 9 1 14 6 11 11 -4 5 1 7 10 3 10 -3 17 -2
17 4 0 6 17 8 42 6 47 -5 67 9 87 58 15 39 47 61 55 39 3 -8 -1 -17 -10 -21
-8 -3 -13 -12 -10 -19 3 -7 -1 -20 -9 -27 -7 -8 -10 -19 -5 -26 5 -10 9 -8 14
4 3 9 12 15 18 13 15 -5 38 15 38 34 0 8 -6 20 -12 27 -9 10 -9 12 -1 7 14 -8
27 10 13 19 -13 8 -3 25 13 24 8 0 8 -2 -1 -6z m3388 -2 c0 -6 -4 -13 -10 -16
-5 -3 -10 1 -10 9 0 9 5 16 10 16 6 0 10 -4 10 -9z m-1582 -44 c3 -12 -4 -17
-23 -17 -23 0 -25 2 -15 21 13 23 33 21 38 -4z m90 -20 c7 -8 7 -18 2 -27 -8
-13 -11 -13 -26 2 -9 9 -13 21 -10 27 9 15 21 14 34 -2z m1492 -52 c0 -38 -15
-47 -57 -36 -29 9 -27 10 22 26 8 2 15 16 15 30 0 15 4 24 10 20 6 -3 10 -21
10 -40z m-4120 25 c0 -5 -4 -10 -10 -10 -5 0 -10 5 -10 10 0 6 5 10 10 10 6 0
10 -4 10 -10z m2495 -10 c0 -8 -10 -16 -22 -18 -22 -3 -32 16 -16 32 12 11 38
2 38 -14z m-2205 -51 c0 -6 -4 -7 -10 -4 -5 3 -10 11 -10 16 0 6 5 7 10 4 6
-3 10 -11 10 -16z m-30 1 c0 -5 -4 -10 -10 -10 -5 0 -10 5 -10 10 0 6 5 10 10
10 6 0 10 -4 10 -10z m2342 -35 c19 -12 13 -24 -20 -43 -24 -13 -43 -6 -64 22
-21 30 41 45 84 21z m-3352 -55 c0 -16 -3 -29 -7 -29 -20 3 -26 -2 -13 -11 13
-8 13 -10 -2 -10 -21 0 -20 49 2 67 20 17 20 17 20 -17z m3465 3 c14 -13 16
-28 12 -65 -7 -55 -1 -78 19 -78 16 0 19 -16 4 -25 -5 -3 -10 -19 -10 -36 0
-20 -5 -29 -16 -29 -11 0 -14 5 -10 16 4 9 -1 28 -9 41 -9 13 -14 30 -12 36 3
7 -8 26 -23 42 -15 17 -30 45 -34 63 -5 28 -2 34 17 42 33 13 44 12 62 -7z
m-775 -2 c0 -5 8 -11 18 -13 28 -8 62 -86 56 -128 -3 -19 -5 -50 -5 -67 -1
-18 -6 -33 -11 -33 -6 0 -8 7 -4 15 4 11 -1 15 -19 15 -14 0 -25 5 -25 10 0 6
3 9 8 9 19 -3 26 2 13 10 -9 6 -22 6 -34 -1 -15 -7 -22 -7 -28 3 -14 22 -11
29 11 29 11 0 20 5 20 11 0 6 -7 9 -15 5 -10 -3 -15 1 -15 13 0 14 5 18 20 14
22 -6 28 12 8 20 -8 3 -6 6 4 6 17 1 17 2 1 21 -21 24 -43 26 -43 3 0 -13 -3
-14 -12 -5 -8 8 -8 15 2 27 7 8 9 15 4 15 -10 0 28 29 39 30 4 0 7 -4 7 -9z
m660 -136 c11 -13 10 -22 -3 -50 -9 -19 -23 -35 -31 -35 -21 0 -46 39 -46 72
0 25 4 28 34 28 18 0 39 -7 46 -15z m-810 -15 c0 -5 -2 -10 -4 -10 -3 0 -8 5
-11 10 -3 6 -1 10 4 10 6 0 11 -4 11 -10z m-1900 -10 c0 -5 -5 -10 -11 -10 -5
0 -7 5 -4 10 3 6 8 10 11 10 2 0 4 -4 4 -10z m-755 -20 c-3 -5 -11 -10 -16
-10 -6 0 -7 5 -4 10 3 6 11 10 16 10 6 0 7 -4 4 -10z m283 -51 c2 -19 -2 -28
-8 -24 -11 7 -14 38 -3 48 9 10 8 10 11 -24z m3279 9 c-3 -8 -6 -5 -6 6 -1 11
2 17 5 13 3 -3 4 -12 1 -19z m-2867 -18 c0 -5 -4 -10 -10 -10 -5 0 -10 5 -10
10 0 6 5 10 10 10 6 0 10 -4 10 -10z m-38 -52 c-7 -7 -12 -8 -12 -2 0 6 3 14
7 17 3 4 9 5 12 2 2 -3 -1 -11 -7 -17z m-346 -60 c-3 -13 -6 -29 -6 -36 0 -7
-4 -11 -8 -8 -12 7 -2 66 10 66 6 0 8 -10 4 -22z m340 -24 c0 -26 -5 -46 -24
-104 -3 -8 -6 -32 -7 -52 -1 -21 -8 -44 -15 -53 -10 -12 -10 -15 4 -15 28 0
22 -81 -9 -114 -14 -15 -25 -36 -25 -47 0 -11 -4 -18 -8 -15 -11 7 -7 57 5 64
6 4 12 23 13 42 3 53 1 60 -15 60 -9 0 -16 10 -17 28 -2 41 -2 45 7 71 6 21 5
23 -13 19 -15 -4 -19 -2 -15 8 3 9 13 12 23 9 13 -4 24 5 39 31 12 20 20 43
17 51 -8 19 12 55 27 50 7 -2 12 -17 13 -33z m2139 16 c3 -5 -1 -10 -9 -10 -9
0 -16 5 -16 10 0 6 4 10 9 10 6 0 13 -4 16 -10z m225 -36 c0 -8 -4 -12 -10 -9
-5 3 -10 10 -10 16 0 5 5 9 10 9 6 0 10 -7 10 -16z m-2660 2 c0 -3 -4 -8 -10
-11 -5 -3 -10 -1 -10 4 0 6 5 11 10 11 6 0 10 -2 10 -4z m2580 -23 c10 9 11 9
5 -2 -8 -14 10 -31 34 -31 10 0 11 3 3 13 -8 10 -6 13 9 14 11 1 17 -2 14 -8
-4 -5 1 -9 9 -9 8 0 19 8 25 17 5 10 13 14 18 10 4 -5 -1 -16 -12 -24 -14 -11
-16 -17 -7 -20 6 -3 12 -11 12 -19 0 -8 5 -14 11 -14 7 0 8 -22 4 -67 -7 -70
-27 -108 -52 -99 -8 3 -13 0 -12 -7 3 -23 -1 -37 -11 -37 -5 0 -10 7 -10 15 0
13 -4 14 -21 4 -17 -9 -24 -8 -31 2 -6 10 -7 6 -2 -11 9 -33 13 -37 23 -21 7
11 11 9 21 -8 10 -19 7 -28 -24 -66 -20 -24 -36 -48 -36 -55 0 -6 -5 -8 -10
-5 -6 4 -7 11 -4 17 4 6 8 37 8 68 2 44 -1 57 -11 53 -18 -7 -16 24 2 35 13 7
14 16 6 53 -6 24 -10 53 -10 64 0 18 1 18 9 -2 11 -28 19 -29 36 -5 17 22 18
53 2 51 -28 -5 -43 12 -41 44 4 79 2 74 17 55 10 -14 15 -15 26 -5z m-130 -9
c0 -8 -4 -12 -10 -9 -5 3 -10 10 -10 16 0 5 5 9 10 9 6 0 10 -7 10 -16z
m-2460 -14 c-8 -5 -19 -10 -25 -10 -5 0 -3 5 5 10 8 5 20 10 25 10 6 0 3 -5
-5 -10z m2435 -110 c3 -5 -1 -10 -10 -10 -9 0 -13 5 -10 10 3 6 8 10 10 10 2
0 7 -4 10 -10z m-2030 -10 c-3 -5 -10 -10 -16 -10 -5 0 -9 5 -9 10 0 6 7 10
16 10 8 0 12 -4 9 -10z m3643 -8 c6 -18 -15 -14 -22 4 -4 10 -1 14 6 12 6 -2
14 -10 16 -16z m157 -12 c3 -5 1 -10 -4 -10 -6 0 -11 5 -11 10 0 6 2 10 4 10
3 0 8 -4 11 -10z m-1785 -20 c-8 -5 -17 -7 -19 -4 -3 3 1 9 9 14 8 5 17 7 19
4 3 -3 -1 -9 -9 -14z m1985 -28 c-8 -8 -25 10 -19 20 4 6 9 5 15 -3 4 -7 6
-15 4 -17z m-1999 -12 c0 -11 -3 -20 -6 -20 -9 0 -29 37 -23 43 10 11 29 -4
29 -23z m1746 -18 c-3 -10 -11 -7 -27 10 -12 13 -18 26 -12 29 13 9 45 -23 39
-39z m-4300 6 c-8 -8 -9 -4 -5 13 4 13 8 18 11 10 2 -7 -1 -18 -6 -23z m158
22 c0 -5 -2 -10 -4 -10 -3 0 -8 5 -11 10 -3 6 -1 10 4 10 6 0 11 -4 11 -10z
m4231 -23 c-1 -12 -15 -9 -19 4 -3 6 1 10 8 8 6 -3 11 -8 11 -12z m-341 -21
c0 -11 -19 -15 -25 -6 -3 5 1 10 9 10 9 0 16 -2 16 -4z m1850 -10 c0 -3 -4 -8
-10 -11 -5 -3 -10 -1 -10 4 0 6 5 11 10 11 6 0 10 -2 10 -4z m103 -12 c23 -9
22 -24 -3 -24 -11 0 -20 5 -20 10 0 6 -7 10 -16 10 -8 0 -12 5 -9 11 4 5 12 8
18 5 7 -4 20 -9 30 -12z m-5536 0 c-3 -3 -12 -4 -19 -1 -8 3 -5 6 6 6 11 1 17
-2 13 -5z m3613 -14 c0 -5 -4 -10 -10 -10 -5 0 -10 5 -10 10 0 6 5 10 10 10 6
0 10 -4 10 -10z m1825 0 c-3 -5 -1 -10 4 -10 6 0 11 -10 11 -22 0 -17 3 -19
12 -10 19 19 42 14 55 -14 12 -25 11 -26 -15 -21 -17 3 -31 -1 -39 -11 -12
-16 -13 -16 -7 0 3 9 -3 26 -13 37 -21 25 -33 27 -33 5 0 -8 -5 -12 -10 -9 -6
4 -8 11 -5 16 4 5 1 9 -5 9 -6 0 -8 5 -5 11 4 6 13 8 20 5 7 -2 16 2 19 10 3
8 8 14 11 14 4 0 3 -4 0 -10z m-3351 -15 c-4 -8 -10 -15 -15 -15 -4 0 -6 7 -3
15 4 8 10 15 15 15 4 0 6 -7 3 -15z m2081 5 c3 -5 1 -10 -4 -10 -6 0 -11 5
-11 10 0 6 2 10 4 10 3 0 8 -4 11 -10z m-3995 -40 c0 -5 -4 -10 -10 -10 -5 0
-10 5 -10 10 0 6 5 10 10 10 6 0 10 -4 10 -10z m5160 0 c0 -5 -2 -10 -4 -10
-3 0 -8 5 -11 10 -3 6 -1 10 4 10 6 0 11 -4 11 -10z m247 -32 c-7 -4 -13 -1
-15 7 -2 9 -8 12 -14 9 -7 -4 -8 -2 -4 4 5 9 12 8 26 0 14 -9 16 -14 7 -20z
m-5427 11 c0 -5 5 -7 10 -4 6 3 10 1 10 -4 0 -6 -4 -11 -9 -11 -5 0 -8 -7 -7
-15 3 -18 16 -32 16 -17 0 6 7 9 16 5 10 -4 14 -16 12 -41 -3 -35 -28 -59 -28
-28 0 9 -4 16 -10 16 -14 0 -13 -27 2 -32 7 -3 9 -12 5 -22 -9 -22 -27 -11
-28 17 l0 22 -11 -22 c-13 -27 -26 -29 -35 -7 -3 8 4 25 17 40 13 13 20 24 17
24 -4 0 0 11 8 24 15 23 15 26 -4 45 -21 21 -21 21 -1 21 11 0 20 -5 20 -11z
m-390 -9 c0 -5 -5 -10 -11 -10 -5 0 -7 5 -4 10 3 6 8 10 11 10 2 0 4 -4 4 -10z
m0 -34 c0 -8 -4 -17 -9 -21 -12 -7 -24 12 -16 25 9 15 25 12 25 -4z m2320 -56
c0 -5 -2 -10 -4 -10 -3 0 -8 5 -11 10 -3 6 -1 10 4 10 6 0 11 -4 11 -10z
m-2810 -10 c0 -5 -4 -10 -10 -10 -5 0 -10 5 -10 10 0 6 5 10 10 10 6 0 10 -4
10 -10z m390 -10 c0 -5 -7 -10 -16 -10 -8 0 -12 5 -9 10 3 6 10 10 16 10 5 0
9 -4 9 -10z m2395 -10 c-3 -5 -12 -10 -18 -10 -7 0 -6 4 3 10 19 12 23 12 15
0z m-2392 -34 c-1 -11 3 -30 8 -43 10 -26 -10 -77 -33 -86 -8 -2 -9 -8 -4 -13
5 -5 11 -4 13 4 9 24 20 11 21 -25 1 -20 -3 -42 -9 -49 -6 -7 -7 -19 -3 -26 3
-7 -4 -3 -17 10 -20 19 -22 24 -9 32 11 7 11 10 2 10 -7 0 -10 5 -6 11 3 6 1
15 -5 19 -15 9 0 75 16 75 6 0 15 4 20 9 5 5 3 6 -4 2 -9 -5 -13 -1 -13 11 -1
17 -2 17 -15 -1 -21 -28 -29 -13 -12 21 8 15 13 36 11 46 -2 14 3 17 19 15 15
-2 21 -9 20 -22z m-423 -6 c0 -5 -2 -10 -4 -10 -3 0 -8 5 -11 10 -3 6 -1 10 4
10 6 0 11 -4 11 -10z m955 -11 c-4 -5 -1 -9 6 -9 7 0 9 -3 6 -6 -9 -9 -38 16
-31 27 3 5 10 7 15 3 5 -3 7 -10 4 -15z m1833 -28 c-15 -24 -46 -43 -58 -36
-17 10 -11 25 9 25 21 0 44 23 34 34 -4 4 0 4 9 1 14 -5 15 -10 6 -24z m-1948
-10 c0 -6 -4 -13 -10 -16 -5 -3 -10 1 -10 9 0 9 5 16 10 16 6 0 10 -4 10 -9z
m149 -15 c10 -11 6 -17 -20 -30 -21 -11 -36 -13 -42 -7 -7 7 -1 14 16 20 15 6
27 15 27 21 0 14 5 13 19 -4z m1886 -5 c-2 -5 -17 -11 -32 -14 l-27 -5 24 18
c23 18 46 18 35 1z m-2382 -55 c3 -8 -1 -22 -8 -33 -13 -17 -14 -16 -15 15 0
33 13 43 23 18z m2087 -15 c0 -5 -7 -11 -14 -14 -10 -4 -13 -1 -9 9 6 15 23
19 23 5z m-1640 -14 c0 -2 -10 -12 -21 -23 -22 -19 -22 -19 -10 4 10 18 31 31
31 19z m1731 -30 c-10 -9 -11 -8 -5 6 3 10 9 15 12 12 3 -3 0 -11 -7 -18z
m-2181 -7 c0 -5 -4 -10 -10 -10 -5 0 -10 5 -10 10 0 6 5 10 10 10 6 0 10 -4
10 -10z m2238 4 c12 -4 22 -13 22 -20 0 -8 9 -22 19 -31 11 -9 18 -20 15 -25
-3 -5 -13 -3 -21 4 -8 7 -24 17 -36 23 -11 5 -24 20 -28 33 -9 24 -6 25 29 16z
m-1748 -44 c0 -5 -4 -10 -10 -10 -5 0 -10 5 -10 10 0 6 5 10 10 10 6 0 10 -4
10 -10z m3575 -16 c10 -10 14 -25 11 -38 -3 -12 -6 -26 -6 -33 0 -18 -26 -5
-43 20 -9 15 -11 30 -6 45 10 26 22 28 44 6z m-4050 -53 c-3 -6 -11 -11 -16
-11 -5 0 -4 6 3 14 14 16 24 13 13 -3z m-468 -7 c-3 -3 -12 -4 -19 -1 -8 3 -5
6 6 6 11 1 17 -2 13 -5z m-22 -34 c3 -5 -1 -10 -9 -10 -8 0 -18 5 -21 10 -3 6
1 10 9 10 8 0 18 -4 21 -10z m495 0 c0 -5 -4 -10 -10 -10 -5 0 -10 5 -10 10 0
6 5 10 10 10 6 0 10 -4 10 -10z m2099 -9 c10 -10 22 -30 26 -43 l7 -23 -21 23
c-28 28 -34 28 -57 -3 -19 -25 -44 -34 -44 -15 0 6 7 10 15 10 14 0 17 4 19
33 1 10 24 35 34 37 1 0 11 -9 21 -19z m-2555 -76 c3 -8 1 -15 -4 -15 -6 0
-10 7 -10 15 0 8 2 15 4 15 2 0 6 -7 10 -15z m996 5 c0 -5 -7 -10 -16 -10 -8
0 -12 5 -9 10 3 6 10 10 16 10 5 0 9 -4 9 -10z m-1005 -40 c3 -5 1 -10 -4 -10
-6 0 -11 5 -11 10 0 6 2 10 4 10 3 0 8 -4 11 -10z m469 -15 c-4 -8 -11 -15
-16 -15 -6 0 -5 6 2 15 7 8 14 15 16 15 2 0 1 -7 -2 -15z m526 -51 c0 -8 -4
-12 -10 -9 -5 3 -10 10 -10 16 0 5 5 9 10 9 6 0 10 -7 10 -16z m1400 -30 c0
-8 -5 -12 -10 -9 -6 4 -8 11 -5 16 9 14 15 11 15 -7z m-1405 -30 c1 -5 6 -19
13 -31 9 -16 9 -23 2 -23 -6 0 -9 -4 -5 -9 3 -6 -4 -15 -15 -21 -19 -10 -25
-5 -22 21 1 4 2 23 4 43 1 20 7 35 13 33 5 -2 10 -8 10 -13z m-953 -81 c-6 -3
-10 -9 -6 -14 3 -5 0 -9 -6 -9 -7 0 -9 7 -6 16 3 9 6 21 6 27 0 7 5 6 13 -2
10 -11 9 -14 -1 -18z m2312 -4 c-3 -6 4 -19 16 -29 19 -17 21 -22 10 -35 -7
-9 -19 -14 -26 -11 -7 3 -14 1 -16 -5 -2 -5 -19 -1 -39 9 -27 12 -36 23 -35
39 1 22 26 34 26 12 0 -5 5 -7 11 -4 6 4 8 13 5 20 -3 9 4 15 17 17 27 5 39 0
31 -13z m94 -11 c19 -19 14 -33 -5 -16 -10 9 -25 18 -33 21 -11 4 -9 6 6 6 11
1 25 -4 32 -11z m-214 -43 c9 -13 16 -27 16 -31 0 -9 -50 39 -50 49 0 15 18 6
34 -18z m-1218 -10 c13 -10 14 -14 5 -15 -11 0 -11 -3 -1 -15 17 -21 29 -19
23 4 -3 10 0 22 6 25 6 4 12 -1 12 -11 2 -33 -2 -48 -19 -61 -9 -7 -16 -23
-17 -37 0 -14 -3 -24 -6 -23 -12 5 -40 -25 -35 -38 3 -7 -5 -15 -19 -18 -16
-4 -25 -15 -29 -41 -8 -42 -23 -53 -44 -32 -16 17 -24 67 -10 67 4 0 8 6 8 14
0 8 5 16 11 18 6 2 11 18 12 36 2 29 23 64 69 113 16 17 16 18 0 22 -14 4 -14
5 -1 6 8 0 24 -6 35 -14z m-1045 -28 c-1 -12 -15 -9 -19 4 -3 6 1 10 8 8 6 -3
11 -8 11 -12z m2298 -8 c12 18 22 0 25 -44 3 -38 -4 -44 -25 -18 -11 13 -11
17 -1 20 20 7 13 22 -8 16 -23 -6 -25 -14 -9 -30 8 -8 6 -13 -9 -17 -11 -4
-25 -5 -32 -4 -19 4 -23 -18 -6 -34 11 -12 12 -18 3 -27 -8 -8 -3 -18 23 -40
33 -27 34 -28 12 -35 -20 -7 -21 -9 -6 -23 9 -9 12 -22 8 -32 -4 -9 -8 -28 -8
-43 -1 -16 -6 -28 -13 -28 -13 0 -28 -37 -25 -57 2 -7 0 -13 -4 -13 -10 0 -44
41 -44 53 0 8 -58 3 -67 -7 -2 -1 3 -16 12 -32 21 -41 20 -57 -3 -45 -14 8
-23 5 -36 -10 -14 -17 -20 -18 -33 -7 -14 11 -15 10 -9 -10 4 -12 3 -22 -2
-22 -5 0 -12 10 -16 23 l-6 22 -24 -26 c-13 -14 -27 -35 -30 -47 -8 -23 -36
-31 -36 -9 0 6 -8 2 -18 -10 -13 -17 -25 -20 -54 -17 -33 4 -37 2 -31 -13 5
-15 3 -16 -8 -5 -7 6 -21 12 -30 12 -10 0 -20 -6 -23 -12 -5 -10 -7 -10 -12 0
-3 6 -14 12 -24 12 -10 0 -22 4 -25 10 -4 6 6 7 25 4 20 -4 30 -3 30 5 0 8 -8
10 -20 6 -11 -4 -20 -2 -20 4 0 6 5 11 12 11 6 0 3 6 -7 14 -24 18 -47 9 -40
-14 8 -26 -13 -35 -36 -14 -10 9 -22 14 -26 11 -3 -4 0 -7 7 -7 7 0 10 -3 6
-7 -4 -5 -18 -8 -29 -8 -12 0 -21 -6 -20 -12 2 -7 -4 -13 -12 -13 -9 0 -12 -6
-9 -15 4 -9 0 -16 -7 -16 -8 -1 -24 -3 -37 -4 -25 -3 -48 27 -36 47 5 7 3 8
-7 2 -8 -5 -22 -7 -31 -6 -10 2 -18 -2 -18 -8 0 -7 -6 -8 -17 -1 -10 5 -22 11
-28 13 -5 1 -9 6 -8 10 2 5 -8 8 -21 8 -22 0 -23 3 -18 45 3 31 1 45 -7 45 -7
0 -9 -5 -6 -10 11 -18 -16 -41 -38 -34 -25 8 -47 28 -47 43 0 6 -4 11 -10 11
-5 0 -10 14 -10 31 0 23 -5 32 -20 36 -15 4 -18 9 -10 18 8 9 6 14 -6 19 -10
4 -14 13 -10 24 4 12 0 10 -13 -6 -11 -12 -23 -22 -28 -21 -4 1 -16 -1 -26 -6
-23 -10 -28 -4 -32 37 -2 22 4 43 15 58 l19 25 -32 15 c-31 15 -39 36 -11 34
8 -1 14 2 14 6 0 11 43 -1 52 -14 4 -6 10 -7 15 -3 4 5 1 12 -6 16 -7 5 -15
25 -17 45 -4 28 -1 36 11 36 9 0 14 -4 10 -9 -3 -5 4 -11 16 -13 30 -4 49 -35
29 -48 -19 -12 -13 -12 30 0 43 12 76 4 60 -15 -18 -22 12 -25 39 -4 13 10 28
16 33 13 15 -10 58 -12 63 -4 3 5 14 6 26 3 13 -4 18 -11 14 -22 -3 -8 -3 -12
1 -8 4 4 13 2 20 -4 8 -7 14 -7 19 1 9 14 62 13 68 -2 3 -10 9 -10 28 -1 41
20 69 25 69 13 0 -7 6 -10 14 -7 8 3 29 -11 50 -34 l35 -40 30 22 c22 16 34
19 43 12 7 -6 25 -13 40 -15 23 -4 33 1 54 29 14 18 30 30 36 27 6 -4 13 -1
17 5 6 8 15 9 34 2 17 -7 27 -7 27 -1 0 6 -7 10 -15 10 -27 0 -16 19 13 22 19
2 28 9 30 26 4 26 17 28 38 7 9 -8 22 -15 30 -15 16 0 19 26 4 35 -5 3 -10 1
-10 -6 0 -10 -3 -10 -11 -2 -9 9 -8 16 5 28 9 9 16 21 16 26 0 5 9 9 19 9 11
0 22 6 24 13 3 7 6 5 6 -5 1 -10 6 -18 12 -18 5 0 8 4 5 9 -3 5 1 12 10 15 10
4 14 12 10 22 -11 28 4 35 35 17 24 -15 31 -15 38 -4z m-1409 -3 c0 -11 -19
-15 -25 -6 -3 5 1 10 9 10 9 0 16 -2 16 -4z m10 -26 c-6 -11 -16 -17 -22 -14
-7 5 -5 12 7 21 25 18 28 17 15 -7z m-10 -34 c0 -2 -6 -9 -13 -15 -10 -8 -14
-7 -14 4 0 8 6 15 14 15 7 0 13 -2 13 -4z m-821 -15 c10 -7 11 -13 2 -30 -7
-11 -17 -21 -23 -21 -7 0 -7 4 1 13 6 8 8 17 4 20 -3 4 -12 -1 -19 -11 -10
-13 -15 -14 -25 -5 -26 26 26 55 60 34z m2217 -25 c15 -12 16 -17 7 -27 -10
-10 -15 -9 -28 1 -16 13 -21 40 -7 40 5 0 17 -6 28 -14z m-1196 -26 c0 -5 -7
-10 -16 -10 -8 0 -12 5 -9 10 3 6 10 10 16 10 5 0 9 -4 9 -10z m-1010 -24 c0
-3 -4 -8 -10 -11 -5 -3 -10 -1 -10 4 0 6 5 11 10 11 6 0 10 -2 10 -4z m2280
-65 c0 -18 -18 -21 -30 -6 -10 13 -9 15 9 15 11 0 21 -4 21 -9z m-2320 -42 c0
-14 -16 -11 -29 5 -10 12 -8 13 8 9 12 -3 21 -9 21 -14z m2308 -1 c-2 -6 -10
-14 -16 -16 -7 -2 -10 2 -6 12 7 18 28 22 22 4z m72 -28 c0 -5 -2 -10 -4 -10
-3 0 -8 5 -11 10 -3 6 -1 10 4 10 6 0 11 -4 11 -10z m5 -43 c0 -8 4 -19 8 -23
4 -4 7 -14 7 -21 0 -19 -35 -12 -35 7 0 8 -4 21 -8 28 -5 6 -5 17 -2 23 10 14
30 5 30 -14z m-115 -17 c0 -5 6 -10 14 -10 9 0 12 -7 9 -20 -8 -30 -37 -21
-41 13 -2 15 1 27 7 27 6 0 11 -4 11 -10z m-1145 -20 c3 -5 1 -10 -4 -10 -6 0
-11 5 -11 10 0 6 2 10 4 10 3 0 8 -4 11 -10z m-25 -124 c0 -2 -7 -7 -16 -10
-8 -3 -12 -2 -9 4 6 10 25 14 25 6z m516 -72 c-3 -8 -2 -12 3 -9 5 3 12 1 16
-5 3 -5 -3 -10 -14 -10 -22 0 -35 15 -26 30 10 16 28 11 21 -6z m49 -19 c0
-10 -5 -20 -11 -22 -7 -2 -11 7 -11 22 0 15 4 24 11 22 6 -2 11 -12 11 -22z
m215 10 c0 -8 -7 -15 -15 -15 -16 0 -20 12 -8 23 11 12 23 8 23 -8z m-1513
-411 c-3 -3 -12 -4 -19 -1 -8 3 -5 6 6 6 11 1 17 -2 13 -5z m60 -266 c-3 -8
-6 -5 -6 6 -1 11 2 17 5 13 3 -3 4 -12 1 -19z m38 -118 c3 -6 -1 -7 -9 -4 -18
7 -21 14 -7 14 6 0 13 -4 16 -10z m45 -51 c0 -5 -4 -9 -8 -9 -5 0 -9 7 -9 15
0 8 4 12 9 9 4 -3 8 -9 8 -15z"/>
<path d="M4666 3311 c-4 -5 -2 -12 4 -16 15 -9 2 -25 -16 -18 -8 3 -13 12 -10
20 4 10 1 11 -14 3 -10 -6 -32 -11 -47 -12 -15 -1 -36 -8 -45 -16 -13 -11 -21
-12 -31 -4 -8 7 -18 7 -27 2 -13 -8 -13 -10 -1 -10 8 0 12 -3 8 -6 -3 -4 -20
-1 -38 5 -26 9 -35 8 -49 -4 -14 -13 -18 -13 -34 3 -15 15 -16 15 -11 1 5 -13
0 -16 -24 -13 -26 3 -31 0 -31 -18 0 -21 -42 -68 -62 -68 -6 0 -8 -9 -5 -19 3
-14 1 -18 -9 -14 -18 7 -18 -1 0 -16 11 -9 20 -5 44 19 17 17 34 30 39 29 4
-2 24 1 43 5 22 4 61 1 103 -9 37 -9 98 -15 135 -15 61 1 155 -16 207 -39 11
-4 34 -14 50 -21 17 -7 37 -16 45 -21 43 -26 141 -51 195 -50 79 1 266 -18
279 -27 6 -5 18 -10 26 -10 42 -3 109 -14 138 -24 18 -5 36 -8 39 -4 3 3 28
-4 57 -16 28 -11 59 -20 69 -20 9 1 17 -5 17 -13 0 -7 6 -13 13 -12 33 1 47
-4 47 -18 0 -8 7 -15 15 -15 17 0 20 16 5 25 -6 4 -8 11 -5 16 4 5 -1 12 -9
15 -9 3 -16 15 -16 25 0 18 -20 25 -57 20 -7 -1 -13 5 -13 14 0 8 -6 15 -13
15 -7 0 -24 11 -38 24 -18 17 -34 23 -48 19 -16 -4 -21 -1 -21 16 0 11 -6 21
-12 21 -10 0 -10 2 -1 8 19 12 -1 32 -33 34 -16 1 -48 -2 -71 -7 -30 -5 -43
-4 -43 4 0 6 9 11 20 11 11 0 20 5 20 11 0 6 -9 9 -20 6 -11 -3 -23 -1 -26 4
-3 5 -10 6 -16 3 -6 -4 -24 -7 -39 -6 -16 0 -29 -4 -29 -9 0 -5 -5 -9 -11 -9
-5 0 -7 5 -4 10 8 13 -14 42 -26 34 -5 -3 -9 0 -9 5 0 6 -7 11 -16 11 -8 0
-12 5 -9 10 3 6 -1 18 -10 27 -16 15 -18 14 -39 -12 -17 -21 -27 -26 -44 -21
-13 5 -22 3 -22 -3 0 -6 -7 -11 -15 -11 -8 0 -15 5 -15 10 0 6 5 10 11 10 5 0
7 5 3 11 -4 8 -9 7 -15 -2 -7 -12 -11 -12 -17 -1 -5 7 -23 14 -40 14 -18 1
-32 4 -32 8 0 4 -8 10 -17 14 -10 3 -24 9 -30 12 -7 3 -13 -1 -13 -9 0 -27
-28 -27 -45 -1 -10 16 -22 23 -31 20 -12 -4 -14 -1 -9 14 8 25 4 25 -26 -1
-21 -18 -25 -18 -35 -5 -6 9 -16 16 -23 16 -6 0 -11 5 -11 10 0 6 -10 10 -22
10 -21 -1 -22 -2 -6 -14 10 -7 15 -16 12 -19 -4 -3 -15 4 -24 16 -13 16 -15
24 -7 30 8 5 4 7 -8 5 -11 -1 -25 1 -32 5 -6 4 -14 3 -17 -2z"/>
<path d="M4151 3294 c0 -11 3 -14 6 -6 3 7 2 16 -1 19 -3 4 -6 -2 -5 -13z"/>
<path d="M4185 3160 c-3 -5 -1 -10 4 -10 6 0 11 5 11 10 0 6 -2 10 -4 10 -3 0
-8 -4 -11 -10z"/>
<path d="M4100 3050 c0 -5 5 -10 11 -10 5 0 7 5 4 10 -3 6 -8 10 -11 10 -2 0
-4 -4 -4 -10z"/>
<path d="M5737 2979 c7 -7 15 -10 18 -7 3 3 -2 9 -12 12 -14 6 -15 5 -6 -5z"/>
<path d="M4080 2950 c-12 -7 -12 -12 -2 -22 14 -14 35 1 24 19 -5 8 -13 9 -22
3z"/>
<path d="M4005 2850 c-3 -5 -1 -10 4 -10 6 0 11 5 11 10 0 6 -2 10 -4 10 -3 0
-8 -4 -11 -10z"/>
<path d="M4080 2800 c0 -5 7 -10 16 -10 8 0 12 5 9 10 -3 6 -10 10 -16 10 -5
0 -9 -4 -9 -10z"/>
<path d="M5776 2760 c-8 -44 -8 -44 2 -48 11 -3 22 67 11 73 -3 3 -9 -9 -13
-25z"/>
<path d="M5890 2590 c0 -5 4 -10 9 -10 6 0 13 5 16 10 3 6 -1 10 -9 10 -9 0
-16 -4 -16 -10z"/>
<path d="M5880 2550 c-12 -8 -9 -10 13 -10 16 0 26 4 22 10 -8 12 -16 12 -35
0z"/>
<path d="M6182 2978 c-18 -18 -14 -28 8 -28 11 0 20 6 20 14 0 21 -15 27 -28
14z"/>
<path d="M6260 2910 c0 -5 7 -7 15 -4 8 4 15 8 15 10 0 2 -7 4 -15 4 -8 0 -15
-4 -15 -10z"/>
<path d="M6206 2882 c-3 -6 3 -12 15 -15 12 -3 19 -1 16 6 -5 15 -24 20 -31 9z"/>
<path d="M6180 2810 c0 -5 5 -10 11 -10 5 0 7 5 4 10 -3 6 -8 10 -11 10 -2 0
-4 -4 -4 -10z"/>
<path d="M6220 2800 c-9 -6 -10 -10 -3 -10 6 0 15 5 18 10 8 12 4 12 -15 0z"/>
<path d="M4161 1644 c0 -11 3 -14 6 -6 3 7 2 16 -1 19 -3 4 -6 -2 -5 -13z"/>
<path d="M4370 1410 c0 -5 5 -10 11 -10 5 0 7 5 4 10 -3 6 -8 10 -11 10 -2 0
-4 -4 -4 -10z"/>
<path d="M4701 1344 c0 -11 3 -14 6 -6 3 7 2 16 -1 19 -3 4 -6 -2 -5 -13z"/>
<path d="M4490 1335 c-6 -8 -9 -19 -5 -25 11 -18 23 -11 21 15 -1 29 0 29 -16
10z"/>
<path d="M5130 1290 c0 -5 5 -10 10 -10 6 0 10 5 10 10 0 6 -4 10 -10 10 -5 0
-10 -4 -10 -10z"/>
<path d="M4806 1234 c-5 -14 -4 -15 9 -4 17 14 19 20 6 20 -5 0 -12 -7 -15
-16z"/>
<path d="M4956 1224 c-5 -14 -4 -15 9 -4 17 14 19 20 6 20 -5 0 -12 -7 -15
-16z"/>
<path d="M4630 1191 c0 -6 5 -13 10 -16 6 -3 10 1 10 9 0 9 -4 16 -10 16 -5 0
-10 -4 -10 -9z"/>
<path d="M4680 1160 c0 -5 5 -10 10 -10 6 0 10 5 10 10 0 6 -4 10 -10 10 -5 0
-10 -4 -10 -10z"/>
<path d="M5870 9670 c0 -5 5 -10 10 -10 6 0 10 5 10 10 0 6 -4 10 -10 10 -5 0
-10 -4 -10 -10z"/>
<path d="M5904 9639 c-3 -5 6 -9 20 -9 31 0 34 6 6 13 -11 3 -23 1 -26 -4z"/>
<path d="M6865 9612 c-6 -4 -17 -16 -25 -26 -15 -19 -14 -19 11 -3 14 10 29
14 32 10 4 -3 7 -1 7 5 0 15 -14 22 -25 14z"/>
<path d="M4470 9565 c7 -8 17 -12 22 -9 6 4 5 10 -3 15 -22 14 -33 10 -19 -6z"/>
<path d="M8940 9499 c0 -5 5 -7 10 -4 6 3 10 8 10 11 0 2 -4 4 -10 4 -5 0 -10
-5 -10 -11z"/>
<path d="M8920 9479 c0 -11 4 -18 10 -14 5 3 7 12 3 20 -7 21 -13 19 -13 -6z"/>
<path d="M7026 9252 c-3 -5 1 -9 9 -9 8 0 15 4 15 9 0 4 -4 8 -9 8 -6 0 -12
-4 -15 -8z"/>
<path d="M3720 9150 c0 -5 5 -10 10 -10 6 0 10 5 10 10 0 6 -4 10 -10 10 -5 0
-10 -4 -10 -10z"/>
<path d="M7070 9145 c0 -8 5 -15 10 -15 6 0 10 7 10 15 0 8 -4 15 -10 15 -5 0
-10 -7 -10 -15z"/>
<path d="M3358 8753 c7 -3 16 -2 19 1 4 3 -2 6 -13 5 -11 0 -14 -3 -6 -6z"/>
<path d="M7005 8499 c-3 -4 1 -9 9 -12 14 -6 26 0 26 13 0 9 -30 9 -35 -1z"/>
<path d="M4345 7480 c3 -5 8 -10 11 -10 2 0 4 5 4 10 0 6 -5 10 -11 10 -5 0
-7 -4 -4 -10z"/>
<path d="M4493 7462 c21 -23 22 -43 2 -36 -8 4 -15 2 -15 -3 0 -18 12 -22 38
-12 21 8 29 7 38 -5 16 -23 33 -20 27 4 -3 12 -2 20 3 18 5 -2 10 2 12 7 1 6
-2 10 -7 10 -5 0 -13 3 -17 8 -4 4 -16 -1 -27 -10 -11 -10 -17 -13 -14 -7 4 7
-4 19 -18 28 -32 21 -42 20 -22 -2z"/>
<path d="M5160 7423 c0 -16 16 -28 35 -28 21 0 41 22 30 33 -3 4 -9 1 -13 -5
-5 -8 -13 -9 -22 -3 -18 12 -30 13 -30 3z"/>
<path d="M4630 7367 c0 -19 16 -31 24 -18 3 5 -1 14 -9 21 -12 10 -15 10 -15
-3z"/>
<path d="M5185 7370 c3 -5 8 -10 11 -10 2 0 4 5 4 10 0 6 -5 10 -11 10 -5 0
-7 -4 -4 -10z"/>
<path d="M5230 7371 c0 -6 5 -13 10 -16 6 -3 10 1 10 9 0 9 -4 16 -10 16 -5 0
-10 -4 -10 -9z"/>
<path d="M4600 7320 c0 -5 7 -10 15 -10 8 0 15 5 15 10 0 6 -7 10 -15 10 -8 0
-15 -4 -15 -10z"/>
<path d="M4470 7296 c0 -9 5 -16 10 -16 6 0 10 4 10 9 0 6 -4 13 -10 16 -5 3
-10 -1 -10 -9z"/>
<path d="M5230 7300 c0 -5 -7 -10 -15 -10 -43 0 7 -59 76 -89 24 -10 55 -28
68 -40 13 -11 32 -21 43 -21 10 0 18 -4 18 -10 0 -5 8 -13 18 -19 14 -7 17 -4
18 18 1 22 -5 29 -35 40 -20 6 -42 13 -49 13 -8 1 -12 9 -9 18 3 12 -3 16 -28
17 -36 1 -105 41 -105 61 0 6 5 12 10 12 6 0 10 5 10 10 0 6 -4 10 -10 10 -5
0 -10 -4 -10 -10z"/>
<path d="M5285 7270 c-7 -12 2 -30 16 -30 5 0 9 9 9 20 0 21 -15 27 -25 10z"/>
<path d="M3880 7260 c0 -5 5 -10 11 -10 5 0 7 5 4 10 -3 6 -8 10 -11 10 -2 0
-4 -4 -4 -10z"/>
<path d="M5330 7250 c0 -5 4 -10 9 -10 6 0 13 5 16 10 3 6 -1 10 -9 10 -9 0
-16 -4 -16 -10z"/>
<path d="M5483 7216 c4 -11 1 -13 -10 -9 -11 4 -14 2 -11 -8 5 -16 74 -36 85
-25 5 4 -1 14 -12 21 -11 8 -25 19 -32 25 -17 14 -26 12 -20 -4z"/>
<path d="M3845 7130 c3 -5 8 -10 11 -10 2 0 4 5 4 10 0 6 -5 10 -11 10 -5 0
-7 -4 -4 -10z"/>
<path d="M3797 7049 c7 -7 15 -10 18 -7 3 3 -2 9 -12 12 -14 6 -15 5 -6 -5z"/>
<path d="M9745 6849 c-10 -15 3 -25 16 -12 7 7 7 13 1 17 -6 3 -14 1 -17 -5z"/>
<path d="M9758 6800 c-9 -10 -14 -20 -12 -23 3 -3 6 -20 7 -38 3 -36 64 -237
77 -254 5 -5 18 -39 29 -75 23 -69 34 -98 57 -143 8 -16 14 -40 14 -53 0 -13
5 -24 10 -24 6 0 10 -11 10 -24 0 -14 7 -31 15 -40 8 -8 15 -26 15 -40 0 -14
5 -28 10 -31 7 -4 10 120 10 364 l0 371 -22 1 c-13 1 -37 3 -55 5 -18 2 -34 0
-38 -5 -6 -10 -55 9 -55 22 0 14 -55 5 -72 -13z"/>
<path d="M5462 6738 c-13 -13 -16 -58 -4 -58 20 0 52 33 51 53 0 12 -3 16 -6
9 -3 -9 -9 -10 -17 -3 -9 7 -16 7 -24 -1z"/>
<path d="M3698 6613 c7 -3 16 -2 19 1 4 3 -2 6 -13 5 -11 0 -14 -3 -6 -6z"/>
<path d="M4030 6595 c0 -8 7 -15 15 -15 8 0 15 -4 15 -10 0 -15 -26 -12 -40 5
-14 17 -46 20 -55 5 -3 -5 3 -10 15 -10 20 0 20 -1 4 -25 -9 -14 -14 -28 -10
-32 7 -8 -13 -33 -26 -33 -6 0 -7 8 -4 18 5 15 5 15 -6 1 -7 -9 -18 -14 -25
-12 -6 2 -20 -4 -31 -15 -11 -11 -24 -21 -29 -23 -14 -6 -63 -86 -63 -104 0
-8 -9 -15 -19 -15 -11 0 -23 -9 -26 -20 -3 -11 -11 -20 -17 -20 -5 0 -8 -7 -4
-15 5 -15 -41 -115 -54 -115 -4 0 -11 -15 -14 -32 -4 -18 -9 -46 -13 -61 -3
-16 -12 -31 -19 -34 -8 -3 -14 -13 -14 -23 0 -10 -7 -37 -16 -61 -24 -65 -25
-99 -2 -99 10 0 18 6 18 14 0 8 9 18 20 21 11 3 20 14 21 23 0 11 3 12 6 5 2
-7 9 -13 14 -13 6 0 7 5 4 10 -3 6 -1 10 5 10 6 0 9 4 6 9 -4 5 -1 11 6 13 9
3 9 6 1 11 -6 4 -19 0 -27 -9 -15 -14 -16 -13 -16 10 0 14 0 29 -1 34 0 4 10
10 23 14 13 3 17 6 11 7 -18 1 -16 21 1 21 10 0 12 7 8 22 -4 15 -2 19 7 13 8
-4 10 -17 7 -31 -6 -21 -4 -23 16 -15 14 5 23 17 24 30 1 15 -3 20 -12 17 -20
-8 -17 8 6 29 11 10 18 21 15 23 -7 7 36 52 50 52 6 0 20 7 31 16 17 14 17 15
1 10 -32 -10 -13 17 19 28 16 6 40 22 53 34 17 18 31 23 57 20 26 -3 33 -1 30
9 -4 8 2 13 16 13 11 0 26 7 33 16 10 15 17 15 64 3 40 -10 59 -10 82 -2 17 7
37 9 44 7 13 -5 42 -9 103 -13 12 0 22 -8 22 -16 0 -9 9 -15 21 -15 11 0 27
-7 36 -15 8 -8 19 -13 24 -10 5 4 6 -1 2 -11 -5 -14 -3 -15 15 -5 24 13 33 14
30 4 -4 -14 51 -62 74 -65 12 -2 31 -11 41 -21 10 -11 27 -17 36 -14 11 2 23
-4 30 -15 7 -11 16 -16 24 -11 13 8 19 10 43 12 12 1 15 8 12 26 -3 14 -1 25
3 25 5 0 9 -8 9 -17 0 -15 2 -16 9 -3 7 10 4 18 -10 28 -10 7 -19 21 -19 32 0
14 -5 17 -22 12 -17 -4 -20 -2 -15 11 4 11 1 17 -8 17 -23 0 -18 15 8 27 15 7
29 7 40 1 13 -7 17 -5 17 6 0 22 -39 41 -53 27 -13 -13 -47 -15 -47 -3 0 4
-13 16 -30 25 -16 10 -30 24 -30 32 0 7 -14 18 -30 24 -17 6 -46 26 -65 46
-19 19 -41 35 -49 35 -8 0 -16 4 -18 10 -2 8 -27 16 -60 19 -4 1 -5 7 -3 14 3
6 -4 18 -15 25 -16 10 -20 10 -20 -2 0 -7 -11 -16 -25 -18 -14 -3 -25 -1 -25
5 0 7 -4 7 -12 -1 -16 -16 -41 -15 -35 1 4 10 -5 14 -31 15 -21 0 -56 5 -80
10 -35 8 -40 7 -31 -4 9 -11 8 -14 -5 -14 -11 0 -16 9 -16 29 0 17 -6 31 -16
35 -25 10 -34 7 -34 -9z m520 -379 c0 -3 -4 -8 -10 -11 -5 -3 -10 -1 -10 4 0
6 5 11 10 11 6 0 10 -2 10 -4z m-910 -290 c0 -3 -4 -8 -10 -11 -5 -3 -10 -1
-10 4 0 6 5 11 10 11 6 0 10 -2 10 -4z"/>
<path d="M3711 6564 c0 -11 3 -14 6 -6 3 7 2 16 -1 19 -3 4 -6 -2 -5 -13z"/>
<path d="M3690 6510 c0 -5 5 -10 10 -10 6 0 10 5 10 10 0 6 -4 10 -10 10 -5 0
-10 -4 -10 -10z"/>
<path d="M3689 6459 c-8 -16 -13 -18 -19 -9 -6 9 -9 9 -15 0 -4 -7 -1 -16 6
-21 19 -12 29 -11 29 3 0 6 3 8 6 5 4 -4 1 -14 -7 -23 -12 -15 -12 -17 1 -12
8 2 16 17 18 31 2 15 8 27 13 27 5 0 9 5 9 10 0 18 -29 10 -41 -11z"/>
<path d="M4785 6151 c-6 -11 9 -23 19 -14 9 9 7 23 -3 23 -6 0 -12 -4 -16 -9z"/>
<path d="M4700 6090 c0 -5 5 -10 10 -10 6 0 10 5 10 10 0 6 -4 10 -10 10 -5 0
-10 -4 -10 -10z"/>
<path d="M4716 6051 c-4 -5 -2 -12 3 -15 5 -4 12 -2 15 3 4 5 2 12 -3 15 -5 4
-12 2 -15 -3z"/>
<path d="M4601 6041 c-12 -8 -12 -11 0 -23 8 -7 26 -14 41 -14 l27 -2 -24 24
c-27 27 -25 27 -44 15z"/>
<path d="M4206 6028 c5 -7 0 -9 -14 -6 -12 4 -26 0 -33 -8 -6 -8 -16 -11 -22
-7 -16 10 -67 11 -61 1 6 -9 -16 -12 -60 -9 -17 2 -26 -1 -22 -7 3 -6 -3 -13
-14 -17 -11 -3 -20 -14 -21 -23 0 -14 -2 -13 -9 3 -7 18 -8 19 -15 3 -4 -10
-14 -18 -21 -18 -8 0 -17 -7 -20 -15 -4 -8 -10 -13 -14 -10 -5 3 -11 -9 -15
-25 -5 -23 -10 -28 -19 -21 -9 8 -18 6 -32 -4 -13 -10 -14 -13 -3 -10 9 3 22
-1 29 -10 9 -11 9 -15 1 -15 -7 0 -10 -4 -6 -9 3 -6 -3 -14 -12 -20 -10 -6
-14 -11 -9 -11 6 0 1 -7 -10 -15 -16 -12 -16 -14 -3 -15 26 0 20 -70 -9 -96
-13 -13 -20 -28 -16 -38 3 -9 2 -29 -4 -44 -11 -32 0 -62 23 -62 7 0 17 -12
22 -26 7 -21 16 -27 41 -29 18 -2 32 1 32 5 0 8 -38 23 -52 21 -5 -1 -8 3 -8
9 0 6 9 10 20 10 11 0 20 6 20 13 0 7 6 22 14 33 15 19 15 19 29 -1 14 -19 15
-18 10 8 -3 16 -12 27 -22 27 -13 1 -12 3 4 12 11 7 29 12 39 13 19 2 33 45
14 45 -20 0 -6 30 17 36 14 3 25 12 25 18 0 16 55 68 105 98 79 48 307 65 380
28 22 -11 47 -20 57 -20 10 0 18 -4 18 -8 0 -5 17 -18 38 -30 42 -23 112 -94
112 -114 0 -7 16 -24 35 -38 19 -14 35 -30 35 -36 0 -5 14 -20 30 -32 26 -19
30 -20 30 -6 0 23 -57 123 -92 160 -36 39 -37 78 -1 45 12 -12 24 -21 27 -21
3 0 16 -11 30 -25 14 -14 31 -25 39 -25 18 0 67 -59 67 -81 0 -29 19 -32 39
-8 15 19 22 21 42 13 l23 -10 -22 -22 c-20 -20 -20 -23 -6 -29 20 -7 34 13 34
50 0 19 -7 31 -24 39 -32 14 -45 43 -16 35 15 -4 22 1 26 20 4 13 1 30 -5 36
-14 14 -15 30 -1 22 6 -3 10 -1 10 4 0 17 28 13 38 -5 5 -9 14 -14 21 -10 17
11 13 22 -14 34 -24 11 -36 52 -15 52 7 0 7 7 0 21 -9 16 -17 19 -38 14 -15
-4 -31 -13 -35 -21 -11 -19 -28 -18 -21 1 4 8 1 15 -6 15 -7 0 -10 8 -7 20 5
21 -7 28 -18 10 -3 -5 -11 -10 -16 -10 -6 0 -7 5 -4 10 5 9 -15 15 -38 11 -10
-2 -5 31 8 45 6 7 13 10 16 8 4 -2 9 3 13 11 4 11 -2 15 -21 15 -14 0 -24 -3
-20 -6 3 -4 1 -12 -6 -19 -17 -16 -67 -28 -67 -15 0 5 -1 13 -2 18 -1 4 11 10
28 13 24 6 25 7 6 8 -13 0 -21 4 -19 9 3 4 -5 7 -18 7 -18 0 -21 -3 -13 -12 7
-9 6 -18 -3 -29 -11 -14 -10 -18 6 -31 18 -14 18 -15 2 -9 -10 3 -23 6 -28 6
-6 0 -7 9 -4 20 4 14 2 20 -8 20 -9 0 -17 -6 -19 -12 -3 -9 -12 -8 -33 6 l-28
18 7 -26 c4 -15 2 -26 -4 -26 -5 0 -10 7 -10 15 0 8 -4 15 -10 15 -5 0 -10 7
-10 15 0 10 -10 15 -30 15 -23 0 -30 4 -30 20 0 14 -7 20 -21 20 -11 0 -17 -4
-14 -10 3 -5 -3 -10 -14 -10 -11 0 -23 5 -27 11 -3 6 -17 8 -30 5 -17 -5 -23
-2 -22 6 2 8 -5 11 -17 9 -11 -2 -31 -5 -45 -5 -14 -1 -30 -7 -36 -15 -9 -12
-12 -11 -17 1 -4 12 -17 14 -51 12 -27 -3 -46 0 -46 6 0 5 -5 10 -11 10 -5 0
-7 -5 -3 -12z m119 -78 c3 -5 1 -10 -4 -10 -6 0 -11 5 -11 10 0 6 2 10 4 10 3
0 8 -4 11 -10z m-135 -4 c0 -3 -4 -8 -10 -11 -5 -3 -10 -1 -10 4 0 6 5 11 10
11 6 0 10 -2 10 -4z m287 -14 c12 -7 31 -12 42 -12 12 0 21 -7 21 -15 0 -18
-42 -14 -115 11 -22 8 -48 14 -57 14 -10 0 -18 3 -18 8 0 11 103 7 127 -6z
m233 -36 c0 -3 -4 -8 -10 -11 -5 -3 -10 -1 -10 4 0 6 5 11 10 11 6 0 10 -2 10
-4z m-123 -42 c-9 -9 -28 6 -21 18 4 6 10 6 17 -1 6 -6 8 -13 4 -17z m234 -6
c11 -21 11 -22 -4 -9 -10 7 -17 17 -17 22 0 15 9 10 21 -13z m33 -33 c-4 -8
-11 -15 -16 -15 -6 0 -5 6 2 15 7 8 14 15 16 15 2 0 1 -7 -2 -15z m59 -5 c3
-11 -2 -25 -10 -32 -14 -11 -15 -10 -9 10 5 14 3 22 -4 22 -6 0 -8 5 -5 10 10
16 22 12 28 -10z m67 -14 c0 -3 -4 -8 -10 -11 -5 -3 -10 -1 -10 4 0 6 5 11 10
11 6 0 10 -2 10 -4z"/>
<path d="M4040 6020 c0 -5 5 -10 10 -10 6 0 10 5 10 10 0 6 -4 10 -10 10 -5 0
-10 -4 -10 -10z"/>
<path d="M4710 6010 c0 -5 5 -10 11 -10 5 0 7 5 4 10 -3 6 -8 10 -11 10 -2 0
-4 -4 -4 -10z"/>
<path d="M4692 5990 c13 -20 28 -27 28 -12 0 4 -9 13 -20 20 -19 12 -20 11 -8
-8z"/>
<path d="M3900 5990 c-8 -5 -10 -10 -5 -10 6 0 17 5 25 10 8 5 11 10 5 10 -5
0 -17 -5 -25 -10z"/>
<path d="M4906 5955 c-4 -10 1 -15 14 -15 11 0 20 7 20 15 0 8 -6 15 -14 15
-8 0 -16 -7 -20 -15z"/>
<path d="M5985 5930 c3 -5 8 -10 11 -10 2 0 4 5 4 10 0 6 -5 10 -11 10 -5 0
-7 -4 -4 -10z"/>
<path d="M4947 5913 c3 -7 9 -13 14 -13 5 0 9 6 9 13 0 8 -6 14 -14 14 -8 0
-12 -6 -9 -14z"/>
<path d="M3695 5910 c-3 -5 -1 -10 4 -10 6 0 11 5 11 10 0 6 -2 10 -4 10 -3 0
-8 -4 -11 -10z"/>
<path d="M4990 5890 c0 -5 5 -10 11 -10 5 0 7 5 4 10 -3 6 -8 10 -11 10 -2 0
-4 -4 -4 -10z"/>
<path d="M3730 5880 c0 -5 5 -10 10 -10 6 0 10 5 10 10 0 6 -4 10 -10 10 -5 0
-10 -4 -10 -10z"/>
<path d="M4956 5881 c-4 -7 -5 -15 -2 -18 9 -9 19 4 14 18 -4 11 -6 11 -12 0z"/>
<path d="M5800 5879 c0 -5 5 -7 10 -4 6 3 10 8 10 11 0 2 -4 4 -10 4 -5 0 -10
-5 -10 -11z"/>
<path d="M3670 5870 c0 -5 5 -10 10 -10 6 0 10 5 10 10 0 6 -4 10 -10 10 -5 0
-10 -4 -10 -10z"/>
<path d="M3635 5860 c-11 -5 -15 -9 -10 -10 6 0 1 -7 -9 -15 -20 -15 -20 -15
0 -15 10 0 24 11 31 25 6 14 10 25 10 24 -1 0 -11 -4 -22 -9z"/>
<path d="M5790 5840 c0 -5 5 -10 10 -10 6 0 10 5 10 10 0 6 -4 10 -10 10 -5 0
-10 -4 -10 -10z"/>
<path d="M5971 5831 c-19 -12 -6 -43 16 -39 10 2 18 12 18 22 0 22 -14 29 -34
17z"/>
<path d="M3784 5808 c6 -20 -10 -25 -17 -5 -4 9 -6 9 -6 -1 -1 -13 26 -28 35
-19 3 3 1 14 -6 24 -10 16 -11 16 -6 1z"/>
<path d="M4234 5761 c-58 -26 -110 -92 -119 -148 -4 -25 -3 -49 2 -54 30 -30
307 -88 346 -73 24 9 39 87 26 138 -12 49 -58 110 -97 130 -49 25 -113 28
-158 7z m126 -105 c0 -8 -5 -18 -11 -22 -14 -8 -33 11 -25 25 10 16 36 13 36
-3z"/>
<path d="M5983 5757 c2 -7 12 -14 21 -15 11 -3 17 1 14 9 -2 7 -12 13 -22 15
-9 1 -15 -3 -13 -9z"/>
<path d="M5820 5750 c0 -5 5 -10 10 -10 6 0 10 5 10 10 0 6 -4 10 -10 10 -5 0
-10 -4 -10 -10z"/>
<path d="M5817 5663 c-11 -10 -8 -20 6 -26 8 -3 13 3 13 14 0 19 -8 24 -19 12z"/>
<path d="M5631 5655 c1 -22 16 -48 22 -38 3 5 0 19 -8 29 -8 10 -14 15 -14 9z"/>
<path d="M5545 5608 c-4 -18 -11 -25 -21 -21 -8 3 -14 0 -14 -7 0 -6 9 -14 20
-17 11 -3 20 -12 20 -20 0 -8 5 -11 10 -8 6 4 8 11 4 16 -3 6 -7 21 -9 35 -2
23 8 29 44 25 10 -2 11 0 0 11 -21 23 -48 16 -54 -14z"/>
<path d="M3740 5616 c0 -9 5 -16 10 -16 6 0 10 4 10 9 0 6 -4 13 -10 16 -5 3
-10 -1 -10 -9z"/>
<path d="M5687 5600 c-7 -27 -1 -39 12 -24 5 5 5 18 2 28 -7 18 -8 18 -14 -4z"/>
<path d="M4957 5593 c-4 -3 -7 -13 -7 -21 0 -12 3 -12 15 -2 8 7 15 16 15 21
0 11 -14 12 -23 2z"/>
<path d="M5620 5580 c0 -5 5 -10 10 -10 6 0 10 5 10 10 0 6 -4 10 -10 10 -5 0
-10 -4 -10 -10z"/>
<path d="M5792 5577 c-11 -13 -10 -18 12 -32 14 -10 26 -25 26 -34 0 -13 2
-14 9 -2 7 10 4 20 -9 31 -9 8 -19 24 -21 34 -4 17 -5 18 -17 3z"/>
<path d="M4016 5571 c-3 -5 1 -14 8 -20 10 -9 16 -9 21 -1 5 8 12 5 21 -7 13
-17 14 -17 7 2 -10 31 -44 47 -57 26z"/>
<path d="M5596 5554 c-4 -9 -4 -19 -1 -22 2 -3 7 3 11 12 4 9 4 19 1 22 -2 3
-7 -3 -11 -12z"/>
<path d="M5740 5544 c0 -9 10 -14 27 -14 21 0 24 3 15 12 -17 17 -42 19 -42 2z"/>
<path d="M4090 5531 c0 -6 9 -9 20 -8 11 1 20 5 20 9 0 4 -9 8 -20 8 -11 0
-20 -4 -20 -9z"/>
<path d="M4960 5525 c0 -8 5 -15 10 -15 6 0 10 -8 10 -17 1 -17 1 -17 11 0 7
13 6 21 -5 32 -19 19 -26 19 -26 0z"/>
<path d="M5666 5528 c7 -11 34 -10 34 1 0 6 -9 9 -19 8 -11 0 -17 -5 -15 -9z"/>
<path d="M5505 5509 c-4 -13 -1 -27 10 -39 16 -18 16 -18 -7 -13 -13 4 -20 2
-15 -3 10 -10 13 -11 60 -13 l32 -2 -30 -16 c-16 -10 -34 -16 -40 -14 -6 1 -5
-3 1 -9 6 -6 25 -13 43 -15 27 -4 31 -1 31 20 0 17 6 25 23 27 12 2 20 8 17
13 -3 6 -15 9 -28 7 -17 -2 -25 3 -29 17 -4 17 -8 18 -24 8 -10 -6 -21 -8 -25
-4 -12 12 12 30 40 30 14 0 26 4 26 9 0 5 -13 7 -30 3 -19 -4 -30 -3 -30 4 0
19 -18 12 -25 -10z"/>
<path d="M3770 5504 c8 -10 15 -20 16 -22 1 -2 5 1 8 7 4 5 -4 15 -16 22 -22
12 -22 11 -8 -7z"/>
<path d="M5718 5505 c-4 -4 -4 -14 -1 -23 5 -14 3 -15 -8 -4 -15 14 -33 16
-25 3 4 -5 2 -11 -4 -13 -5 -1 16 -3 47 -4 46 0 52 1 31 8 -15 5 -28 16 -30
25 -2 8 -6 12 -10 8z"/>
<path d="M5596 5484 c-10 -25 1 -29 14 -5 6 12 7 21 1 21 -5 0 -12 -7 -15 -16z"/>
<path d="M5805 5440 c3 -5 1 -10 -6 -10 -7 0 -10 -2 -7 -5 8 -9 38 6 32 16 -3
5 -10 9 -15 9 -6 0 -7 -4 -4 -10z"/>
<path d="M4930 5430 c0 -5 5 -10 11 -10 5 0 7 5 4 10 -3 6 -8 10 -11 10 -2 0
-4 -4 -4 -10z"/>
<path d="M5690 5430 c0 -5 5 -10 11 -10 6 0 9 -12 8 -28 -5 -39 7 -55 32 -41
19 10 19 12 5 28 -9 10 -16 23 -16 29 0 6 -9 16 -20 22 -14 7 -20 7 -20 0z"/>
<path d="M5740 5409 c0 -11 4 -18 10 -14 5 3 7 12 3 20 -7 21 -13 19 -13 -6z"/>
<path d="M5670 5400 c0 -5 5 -10 10 -10 6 0 10 5 10 10 0 6 -4 10 -10 10 -5 0
-10 -4 -10 -10z"/>
<path d="M5606 5385 c-3 -8 -1 -15 4 -15 13 0 22 18 11 24 -5 3 -11 -1 -15 -9z"/>
<path d="M5815 5390 c-3 -5 -1 -10 4 -10 6 0 11 5 11 10 0 6 -2 10 -4 10 -3 0
-8 -4 -11 -10z"/>
<path d="M5640 5380 c0 -5 5 -10 10 -10 6 0 10 5 10 10 0 6 -4 10 -10 10 -5 0
-10 -4 -10 -10z"/>
<path d="M5770 5370 c0 -5 5 -10 11 -10 5 0 7 5 4 10 -3 6 -8 10 -11 10 -2 0
-4 -4 -4 -10z"/>
<path d="M5760 5340 c0 -5 5 -10 10 -10 6 0 10 5 10 10 0 6 -4 10 -10 10 -5 0
-10 -4 -10 -10z"/>
<path d="M4435 5310 c3 -5 8 -10 11 -10 2 0 4 5 4 10 0 6 -5 10 -11 10 -5 0
-7 -4 -4 -10z"/>
<path d="M5640 5302 c0 -5 7 -9 15 -9 8 0 12 4 9 9 -3 4 -9 8 -15 8 -5 0 -9
-4 -9 -8z"/>
<path d="M5650 5260 c0 -11 5 -20 10 -20 6 0 10 9 10 20 0 11 -4 20 -10 20 -5
0 -10 -9 -10 -20z"/>
<path d="M5740 5259 c0 -5 5 -7 10 -4 6 3 10 8 10 11 0 2 -4 4 -10 4 -5 0 -10
-5 -10 -11z"/>
<path d="M5685 5233 c-18 -14 -18 -15 -2 -9 10 3 23 6 28 6 5 0 9 5 9 10 0 14
-12 12 -35 -7z"/>
<path d="M2523 5222 c1 -14 5 -18 11 -12 7 7 6 14 -1 21 -9 9 -12 7 -10 -9z"/>
<path d="M5725 5220 c-3 -5 -1 -10 4 -10 6 0 11 5 11 10 0 6 -2 10 -4 10 -3 0
-8 -4 -11 -10z"/>
<path d="M2730 5210 c0 -5 5 -10 10 -10 6 0 10 5 10 10 0 6 -4 10 -10 10 -5 0
-10 -4 -10 -10z"/>
<path d="M5680 5190 c-9 -6 -10 -10 -3 -10 6 0 15 5 18 10 8 12 4 12 -15 0z"/>
<path d="M5770 5180 c0 -5 5 -10 10 -10 6 0 10 5 10 10 0 6 -4 10 -10 10 -5 0
-10 -4 -10 -10z"/>
<path d="M2473 5056 c7 -13 15 -22 19 -20 3 2 9 -5 13 -16 7 -21 25 -28 25
-10 0 11 -53 70 -63 70 -3 0 0 -11 6 -24z"/>
<path d="M5907 5039 c-3 -12 -2 -30 3 -38 5 -9 10 -12 10 -7 0 5 8 2 18 -6 33
-30 59 -31 77 -4 13 19 14 29 5 45 -6 12 -12 21 -13 22 -1 0 -23 3 -48 5 -42
5 -47 4 -52 -17z"/>
<path d="M2555 4990 c-3 -5 -1 -10 4 -10 6 0 11 5 11 10 0 6 -2 10 -4 10 -3 0
-8 -4 -11 -10z"/>
<path d="M2530 4971 c0 -6 -7 -11 -17 -11 -24 0 -12 -8 20 -14 31 -5 33 -1 12
20 -8 9 -15 11 -15 5z"/>
<path d="M2830 4890 c0 -5 5 -10 11 -10 5 0 7 5 4 10 -3 6 -8 10 -11 10 -2 0
-4 -4 -4 -10z"/>
<path d="M2455 4879 c-4 -6 -5 -12 -2 -15 2 -3 7 2 10 11 7 17 1 20 -8 4z"/>
<path d="M2576 4737 c3 -10 9 -15 12 -12 3 3 0 11 -7 18 -10 9 -11 8 -5 -6z"/>
<path d="M3025 4730 c-3 -5 -1 -10 4 -10 6 0 11 5 11 10 0 6 -2 10 -4 10 -3 0
-8 -4 -11 -10z"/>
<path d="M2510 4719 c0 -5 5 -7 10 -4 6 3 10 8 10 11 0 2 -4 4 -10 4 -5 0 -10
-5 -10 -11z"/>
<path d="M2630 4590 c0 -5 5 -10 10 -10 6 0 10 5 10 10 0 6 -4 10 -10 10 -5 0
-10 -4 -10 -10z"/>
<path d="M2530 4559 c0 -4 7 -9 15 -13 9 -3 15 0 15 8 0 7 -7 13 -15 13 -8 0
-15 -4 -15 -8z"/>
<path d="M2906 4517 c-20 -15 -12 -47 13 -47 14 1 13 3 -3 15 -19 15 -19 15 5
16 13 1 27 1 32 0 13 -2 7 8 -12 18 -13 7 -23 7 -35 -2z"/>
<path d="M2556 4501 c-3 -5 1 -11 9 -15 8 -3 15 -1 15 4 0 13 -18 22 -24 11z"/>
<path d="M2670 4499 c0 -19 20 -49 33 -49 8 0 8 3 -2 9 -8 5 -9 11 -3 15 18
11 26 -17 8 -30 -16 -11 -16 -13 2 -26 11 -7 22 -23 24 -35 l3 -22 25 20 c14
11 21 19 15 18 -23 -3 -33 2 -38 21 -3 10 -1 20 4 22 13 4 -40 68 -57 68 -8 0
-14 -5 -14 -11z"/>
<path d="M2567 4451 c-3 -12 -1 -21 3 -21 15 0 23 21 12 32 -6 6 -11 2 -15
-11z"/>
<path d="M2945 4460 c3 -6 -1 -10 -9 -10 -8 0 -18 -4 -21 -10 -3 -6 1 -7 9 -4
9 3 16 2 16 -3 0 -5 6 -10 13 -10 17 0 16 35 -1 42 -7 2 -10 0 -7 -5z"/>
<path d="M2596 4421 c-14 -15 -15 -23 -6 -47 10 -26 13 -27 24 -12 9 12 16 14
30 6 15 -9 16 -8 5 11 -10 15 -16 17 -26 9 -19 -16 -27 -3 -13 22 15 29 8 35
-14 11z"/>
<path d="M2763 4373 c-7 -2 -13 -13 -13 -23 0 -13 5 -17 20 -13 14 4 20 0 20
-11 0 -9 8 -16 20 -16 10 0 24 -9 30 -20 15 -28 32 -25 28 5 -2 14 -7 24 -12
23 -5 -2 -12 7 -17 20 -5 12 -15 22 -24 22 -8 0 -15 5 -15 10 0 10 -16 12 -37
3z"/>
<path d="M2611 4346 c-9 -11 -8 -15 6 -21 30 -13 38 -13 51 1 11 12 9 14 -8
14 -11 0 -20 5 -20 10 0 14 -16 12 -29 -4z"/>
<path d="M5205 4320 c-3 -5 1 -10 9 -10 9 0 16 5 16 10 0 6 -4 10 -9 10 -6 0
-13 -4 -16 -10z"/>
<path d="M2640 4290 c0 -5 10 -10 23 -10 18 0 19 2 7 10 -19 13 -30 13 -30 0z"/>
<path d="M2672 4258 c3 -7 13 -15 24 -17 16 -3 17 -1 5 13 -16 19 -34 21 -29
4z"/>
<path d="M2725 4220 c-3 -5 6 -19 20 -32 14 -12 25 -27 25 -34 0 -7 4 -15 9
-19 6 -3 9 5 8 19 -2 26 -53 80 -62 66z"/>
<path d="M3467 4209 c-19 -11 -14 -29 8 -29 8 0 13 9 12 20 -1 11 -1 20 -2 20
0 0 -8 -5 -18 -11z"/>
<path d="M3630 4080 c-12 -8 -10 -10 8 -10 13 0 20 4 17 10 -7 12 -6 12 -25 0z"/>
<path d="M3700 4040 c0 -5 7 -10 15 -10 8 0 15 5 15 10 0 6 -7 10 -15 10 -8 0
-15 -4 -15 -10z"/>
<path d="M5686 3955 c-3 -8 -1 -15 4 -15 6 0 10 7 10 15 0 8 -2 15 -4 15 -2 0
-6 -7 -10 -15z"/>
<path d="M8880 3961 c0 -6 4 -13 10 -16 6 -3 7 1 4 9 -7 18 -14 21 -14 7z"/>
<path d="M4965 3920 c-3 -5 -1 -10 4 -10 6 0 11 5 11 10 0 6 -2 10 -4 10 -3 0
-8 -4 -11 -10z"/>
<path d="M3670 3895 c-7 -9 -8 -15 -2 -15 5 0 12 7 16 15 3 8 4 15 2 15 -2 0
-9 -7 -16 -15z"/>
<path d="M3620 3849 c0 -5 5 -7 10 -4 6 3 10 8 10 11 0 2 -4 4 -10 4 -5 0 -10
-5 -10 -11z"/>
<path d="M3675 3850 c-3 -5 1 -10 10 -10 9 0 13 5 10 10 -3 6 -8 10 -10 10 -2
0 -7 -4 -10 -10z"/>
<path d="M3790 3830 c0 -5 5 -10 10 -10 6 0 10 5 10 10 0 6 -4 10 -10 10 -5 0
-10 -4 -10 -10z"/>
<path d="M4215 3771 c-6 -11 9 -23 19 -14 9 9 7 23 -3 23 -6 0 -12 -4 -16 -9z"/>
<path d="M4255 3750 c-3 -5 -1 -10 4 -10 6 0 11 5 11 10 0 6 -2 10 -4 10 -3 0
-8 -4 -11 -10z"/>
<path d="M4205 3700 c-3 -5 -1 -10 4 -10 6 0 11 5 11 10 0 6 -2 10 -4 10 -3 0
-8 -4 -11 -10z"/>
<path d="M4050 3629 c0 -5 5 -7 10 -4 6 3 10 8 10 11 0 2 -4 4 -10 4 -5 0 -10
-5 -10 -11z"/>
<path d="M3778 3283 c7 -3 16 -2 19 1 4 3 -2 6 -13 5 -11 0 -14 -3 -6 -6z"/>
<path d="M3025 2240 c-3 -6 1 -7 9 -4 18 7 21 14 7 14 -6 0 -13 -4 -16 -10z"/>
<path d="M2790 1925 c0 -5 5 -17 10 -25 5 -8 10 -10 10 -5 0 6 -5 17 -10 25
-5 8 -10 11 -10 5z"/>
<path d="M2765 1900 c3 -5 11 -10 16 -10 6 0 7 5 4 10 -3 6 -11 10 -16 10 -6
0 -7 -4 -4 -10z"/>
<path d="M2700 1880 c-8 -5 -12 -12 -9 -15 4 -3 12 1 19 10 14 17 11 19 -10 5z"/>
<path d="M3120 1810 c-13 -8 -13 -10 2 -10 9 0 20 5 23 10 8 13 -5 13 -25 0z"/>
<path d="M2995 1640 c-3 -5 -1 -10 4 -10 6 0 11 5 11 10 0 6 -2 10 -4 10 -3 0
-8 -4 -11 -10z"/>
<path d="M2962 1561 c6 -10 17 -17 25 -14 10 4 10 8 -2 19 -21 21 -38 18 -23
-5z"/>
<path d="M3035 1560 c3 -5 8 -10 11 -10 2 0 4 5 4 10 0 6 -5 10 -11 10 -5 0
-7 -4 -4 -10z"/>
<path d="M2970 1520 c0 -5 7 -10 15 -10 8 0 15 5 15 10 0 6 -7 10 -15 10 -8 0
-15 -4 -15 -10z"/>
<path d="M3040 1484 c0 -8 5 -12 10 -9 6 3 10 10 10 16 0 5 -4 9 -10 9 -5 0
-10 -7 -10 -16z"/>
<path d="M2985 1417 c-4 -10 -5 -21 -1 -24 10 -10 18 4 13 24 -4 17 -4 17 -12
0z"/>
<path d="M3017 1409 c7 -7 15 -10 18 -7 3 3 -2 9 -12 12 -14 6 -15 5 -6 -5z"/>
<path d="M2999 1343 c-13 -16 -12 -17 4 -4 9 7 17 15 17 17 0 8 -8 3 -21 -13z"/>
<path d="M3270 1350 c0 -5 5 -10 10 -10 6 0 10 5 10 10 0 6 -4 10 -10 10 -5 0
-10 -4 -10 -10z"/>
<path d="M2960 1295 c0 -8 5 -15 10 -15 6 0 10 7 10 15 0 8 -4 15 -10 15 -5 0
-10 -7 -10 -15z"/>
<path d="M3040 1280 c-13 -9 -13 -10 0 -10 8 0 22 5 30 10 13 9 13 10 0 10 -8
0 -22 -5 -30 -10z"/>
<path d="M3116 1275 c-3 -8 -1 -15 4 -15 13 0 22 18 11 24 -5 3 -11 -1 -15 -9z"/>
<path d="M2957 1256 c-4 -10 -1 -13 8 -9 8 3 12 9 9 14 -7 12 -11 11 -17 -5z"/>
<path d="M3006 1245 c4 -8 11 -15 16 -15 6 0 5 6 -2 15 -7 8 -14 15 -16 15 -2
0 -1 -7 2 -15z"/>
<path d="M3062 1231 c-7 -4 -10 -15 -7 -23 4 -9 2 -19 -4 -23 -6 -3 -11 -1
-11 5 0 6 -5 8 -12 4 -8 -5 -4 -13 12 -26 23 -19 25 -19 37 -2 9 13 10 21 1
31 -12 15 -5 28 11 18 15 -8 14 -38 -1 -53 -20 -20 -4 -22 22 -2 24 18 24 19
6 39 -10 11 -16 24 -13 28 7 11 -25 14 -41 4z"/>
<path d="M3146 1207 c3 -10 9 -15 12 -12 3 3 0 11 -7 18 -10 9 -11 8 -5 -6z"/>
<path d="M3196 1206 c10 -8 21 -12 24 -10 5 6 -21 24 -34 24 -6 0 -1 -6 10
-14z"/>
<path d="M2986 1171 c-3 -5 1 -14 8 -20 16 -13 32 2 21 19 -8 12 -22 13 -29 1z"/>
<path d="M3180 1165 c0 -8 4 -15 10 -15 5 0 7 7 4 15 -4 8 -8 15 -10 15 -2 0
-4 -7 -4 -15z"/>
<path d="M2910 1139 c0 -5 5 -7 10 -4 6 3 10 8 10 11 0 2 -4 4 -10 4 -5 0 -10
-5 -10 -11z"/>
<path d="M3150 1126 c0 -9 5 -16 10 -16 6 0 10 4 10 9 0 6 -4 13 -10 16 -5 3
-10 -1 -10 -9z"/>
<path d="M3302 1124 c-7 -8 -8 -14 -3 -14 10 0 25 19 20 25 -2 1 -10 -3 -17
-11z"/>
<path d="M2950 1121 c0 -5 7 -11 14 -14 10 -4 13 -1 9 9 -6 15 -23 19 -23 5z"/>
<path d="M2990 1120 c8 -5 20 -10 25 -10 6 0 3 5 -5 10 -8 5 -19 10 -25 10 -5
0 -3 -5 5 -10z"/>
<path d="M3030 1121 c0 -6 4 -13 10 -16 6 -3 7 1 4 9 -7 18 -14 21 -14 7z"/>
<path d="M2986 1083 c-6 -14 -5 -15 5 -6 7 7 10 15 7 18 -3 3 -9 -2 -12 -12z"/>
<path d="M3330 1082 c0 -5 7 -9 15 -9 8 0 12 4 9 9 -3 4 -9 8 -15 8 -5 0 -9
-4 -9 -8z"/>
<path d="M3072 1068 c-15 -15 -15 -28 -2 -28 6 0 10 8 10 18 0 14 2 15 10 2 6
-9 10 -10 10 -3 0 18 -15 24 -28 11z"/>
<path d="M2988 1053 c7 -3 16 -2 19 1 4 3 -2 6 -13 5 -11 0 -14 -3 -6 -6z"/>
<path d="M3116 1041 c-3 -5 0 -14 7 -19 9 -8 16 -6 25 9 11 16 9 19 -7 19 -11
0 -22 -4 -25 -9z"/>
<path d="M3040 997 c0 -10 41 -49 46 -44 3 3 -4 15 -15 26 -19 19 -31 26 -31
18z"/>
<path d="M3000 970 c6 -11 15 -20 20 -20 6 0 10 -8 10 -17 0 -15 2 -16 10 -3
8 12 10 12 16 -3 3 -9 10 -14 15 -11 10 6 -58 74 -73 74 -5 0 -4 -9 2 -20z"/>
<path d="M3352 985 c4 -4 3 -14 -3 -22 -7 -8 -8 -13 -1 -13 15 0 23 28 9 36
-7 4 -9 4 -5 -1z"/>
<path d="M2870 959 c0 -5 5 -7 10 -4 6 3 10 8 10 11 0 2 -4 4 -10 4 -5 0 -10
-5 -10 -11z"/>
<path d="M2972 965 c4 -4 3 -14 -3 -21 -6 -7 -6 -15 -1 -18 6 -3 12 3 15 14 3
11 0 23 -6 27 -7 3 -9 3 -5 -2z"/>
<path d="M3410 960 c0 -5 5 -10 10 -10 6 0 10 5 10 10 0 6 -4 10 -10 10 -5 0
-10 -4 -10 -10z"/>
<path d="M2835 940 c3 -5 8 -10 11 -10 2 0 4 5 4 10 0 6 -5 10 -11 10 -5 0 -7
-4 -4 -10z"/>
<path d="M2996 932 c-3 -6 -1 -14 5 -17 15 -10 25 3 12 16 -7 7 -13 7 -17 1z"/>
<path d="M2930 889 c0 -5 5 -7 10 -4 6 3 10 8 10 11 0 2 -4 4 -10 4 -5 0 -10
-5 -10 -11z"/>
<path d="M3020 889 c0 -5 -5 -7 -10 -4 -6 4 -5 -5 2 -19 13 -30 13 -30 22 7 4
16 2 27 -4 27 -5 0 -10 -5 -10 -11z"/>
<path d="M2945 871 c-3 -6 4 -9 15 -8 11 1 20 5 20 9 0 11 -28 10 -35 -1z"/>
<path d="M3140 850 c0 -5 4 -10 9 -10 6 0 13 5 16 10 3 6 -1 10 -9 10 -9 0
-16 -4 -16 -10z"/>
<path d="M3166 825 c-16 -12 -17 -15 -4 -15 8 0 21 7 28 15 16 19 1 19 -24 0z"/>
<path d="M2920 819 c0 -5 5 -7 10 -4 6 3 10 8 10 11 0 2 -4 4 -10 4 -5 0 -10
-5 -10 -11z"/>
<path d="M3130 796 c0 -8 5 -18 10 -21 6 -3 10 1 10 9 0 8 -4 18 -10 21 -5 3
-10 -1 -10 -9z"/>
<path d="M2958 773 c7 -3 16 -2 19 1 4 3 -2 6 -13 5 -11 0 -14 -3 -6 -6z"/>
<path d="M2835 739 c-4 -6 -5 -12 -2 -15 2 -3 7 2 10 11 7 17 1 20 -8 4z"/>
<path d="M3446 733 c-6 -14 -5 -15 5 -6 7 7 10 15 7 18 -3 3 -9 -2 -12 -12z"/>
<path d="M2971 714 c0 -11 3 -14 6 -6 3 7 2 16 -1 19 -3 4 -6 -2 -5 -13z"/>
<path d="M3500 680 c0 -6 7 -10 15 -10 8 0 15 2 15 4 0 2 -7 6 -15 10 -8 3
-15 1 -15 -4z"/>
</g>
</svg>
